<?xml version="1.0" encoding="utf-8"?>
<!-- Generator: Adobe Illustrator 26.3.1, SVG Export Plug-In . SVG Version: 6.00 Build 0)  -->
<svg version="1.1" id="Layer_1" xmlns="http://www.w3.org/2000/svg" xmlns:xlink="http://www.w3.org/1999/xlink" x="0px" y="0px"
	 viewBox="0 0 288 288" style="enable-background:new 0 0 288 288;" xml:space="preserve">
<style type="text/css">
	.st0{fill:#FFFFFF;}
</style>
<g>
	<g>
		<path class="st0" d="M222.7,250.6c-1.4,0-2.8-0.4-4.1-1.1c0,0,0,0,0,0c-3.9-2.2-5.2-7.2-3-11.1c1.1-1.9,2.8-3.2,4.9-3.8
			c2.1-0.6,4.3-0.3,6.2,0.8c3.9,2.2,5.2,7.2,3,11.1C228.3,249.1,225.6,250.6,222.7,250.6z M220.8,245.9c1.9,1.1,4.3,0.4,5.4-1.5
			c1.1-1.9,0.4-4.3-1.4-5.4c-0.9-0.5-2-0.7-3-0.4c-1,0.3-1.9,0.9-2.4,1.8C218.2,242.3,218.9,244.8,220.8,245.9z"/>
		<path class="st0" d="M57,132.5c-0.6-2.1-1.9-3.9-3.8-4.9c-1.9-1.1-4.1-1.4-6.2-0.8c-2.1,0.6-3.9,1.9-4.9,3.8
			c-1.1,1.9-1.4,4.1-0.8,6.2c0.6,2.1,1.9,3.9,3.8,4.9c1.3,0.7,2.7,1.1,4.1,1.1c2.8,0,5.6-1.5,7.1-4.1
			C57.3,136.8,57.6,134.6,57,132.5z"/>
		<g>
			<path class="st0" d="M171.2,242.9c-0.6,0-1.2-0.4-1.3-1.1c-0.2-0.7,0.3-1.5,1-1.7l40.5-10.1c0.7-0.2,1.5,0.3,1.7,1
				c0.2,0.7-0.3,1.5-1,1.7l-40.5,10.1C171.5,242.9,171.4,242.9,171.2,242.9z"/>
			<path class="st0" d="M195.1,245.2c-0.6,0-1.2-0.4-1.3-1.1c-0.2-0.7,0.3-1.5,1-1.7l11.9-3c0.7-0.2,1.5,0.3,1.7,1
				c0.2,0.7-0.3,1.5-1,1.7l-11.9,3C195.3,245.2,195.2,245.2,195.1,245.2z"/>
			<path class="st0" d="M203.4,227.2c-0.6,0-1.2-0.4-1.3-1.1c-0.2-0.7,0.3-1.5,1-1.7l11.9-3c0.7-0.2,1.5,0.3,1.7,1
				c0.2,0.7-0.3,1.5-1,1.7l-11.9,3C203.7,227.2,203.6,227.2,203.4,227.2z"/>
			<path class="st0" d="M191.3,230.6c-0.6,0-1.2-0.4-1.3-1.1c-0.2-0.7,0.3-1.5,1-1.7l3.3-0.8c0.7-0.2,1.5,0.3,1.7,1
				c0.2,0.7-0.3,1.5-1,1.7l-3.3,0.8C191.5,230.6,191.4,230.6,191.3,230.6z"/>
		</g>
		<g>
			<g>
				
					<ellipse transform="matrix(0.9402 -0.3407 0.3407 0.9402 -53.6172 54.1898)" class="st0" cx="127.5" cy="179.8" rx="1.7" ry="1.7"/>
				
					<ellipse transform="matrix(0.9402 -0.3407 0.3407 0.9402 -53.1686 51.2741)" class="st0" cx="119.4" cy="177" rx="1.7" ry="1.7"/>
				
					<ellipse transform="matrix(0.9402 -0.3407 0.3407 0.9402 -52.7201 48.3584)" class="st0" cx="111.3" cy="174.3" rx="1.7" ry="1.7"/>
				
					<ellipse transform="matrix(0.9402 -0.3407 0.3407 0.9402 -52.2716 45.4426)" class="st0" cx="103.3" cy="171.6" rx="1.7" ry="1.7"/>
			</g>
			<g>
				
					<ellipse transform="matrix(0.9402 -0.3407 0.3407 0.9402 -56.1332 54.6317)" class="st0" cx="127.5" cy="187.1" rx="1.7" ry="1.7"/>
				
					<ellipse transform="matrix(0.9402 -0.3407 0.3407 0.9402 -55.6847 51.7159)" class="st0" cx="119.4" cy="184.4" rx="1.7" ry="1.7"/>
				
					<ellipse transform="matrix(0.9402 -0.3407 0.3407 0.9402 -55.2361 48.8002)" class="st0" cx="111.3" cy="181.7" rx="1.7" ry="1.7"/>
			</g>
			<g>
				
					<ellipse transform="matrix(0.9402 -0.3407 0.3407 0.9402 -58.6492 55.0735)" class="st0" cx="127.5" cy="194.5" rx="1.7" ry="1.7"/>
				
					<ellipse transform="matrix(0.9402 -0.3407 0.3407 0.9402 -58.2007 52.1577)" class="st0" cx="119.4" cy="191.8" rx="1.7" ry="1.7"/>
			</g>
		</g>
		<path class="st0" d="M91.8,114l-1.6-2.3L108,99c0.6-0.4,1-1.1,1.1-1.8c0.1-0.7-0.1-1.4-0.5-2c-1-1.2-2.8-1.5-4.1-0.6l-16.3,11.1
			l-1.6-2.3l16.3-11.1c2.5-1.8,6.1-1.3,7.9,1.1c0.9,1.2,1.3,2.6,1.1,4.1c-0.2,1.5-1,2.8-2.3,3.7L91.8,114z"/>
		<path class="st0" d="M111.6,157.7l-4.1-0.8c0.2-0.9,0.3-2.8,0.3-4.1c0-8.7-7.3-15.9-16.2-15.9v-4.2c11.2,0,20.4,9,20.4,20
			C111.9,154,111.8,156.3,111.6,157.7z"/>
		
			<ellipse transform="matrix(0.8287 -0.5597 0.5597 0.8287 -36.7148 75.5844)" class="st0" cx="105.1" cy="97.8" rx="1.7" ry="1.7"/>
		<g>
			<path class="st0" d="M61.2,228.5c-1.4,0-2.8-0.4-4.1-1.1c0,0,0,0,0,0c-3.9-2.2-5.2-7.2-3-11.1c2.2-3.9,7.2-5.2,11.1-3
				c3.9,2.2,5.2,7.2,3,11.1C66.8,227,64,228.5,61.2,228.5z M59.3,223.8c1.9,1.1,4.3,0.4,5.4-1.5c1.1-1.9,0.4-4.3-1.4-5.4
				c-1.9-1.1-4.3-0.4-5.4,1.5C56.7,220.2,57.4,222.7,59.3,223.8L59.3,223.8z"/>
		</g>
		<g>
			<polygon class="st0" points="69.7,112.9 75.5,113 71.9,119.2 76.5,119.2 65.7,133.2 69.8,121.3 65.1,121.3 			"/>
		</g>
		<path class="st0" d="M212.7,149.4c-0.2,0-0.4,0-0.6-0.1c-1.1-0.3-1.8-1.5-1.4-2.6c9.7-34.9-11.1-63.8-11.4-64.1
			c-0.7-0.9-0.5-2.2,0.4-2.9c0.9-0.7,2.2-0.5,2.9,0.4c0.9,1.2,22.3,30.8,12,67.7C214.5,148.8,213.6,149.4,212.7,149.4z"/>
		<path class="st0" d="M226.2,149.4c-0.2,0-0.4,0-0.6-0.1c-1.1-0.3-1.8-1.5-1.4-2.6c5.5-19.7,1.2-37.3-3.3-48.7
			c-0.4-1.1,0.1-2.3,1.2-2.7c1.1-0.4,2.3,0.1,2.7,1.2c4.7,11.9,9.2,30.5,3.4,51.3C227.9,148.8,227.1,149.4,226.2,149.4z"/>
		<g>
			<path class="st0" d="M204.8,54c-1.4,0-2.8-0.4-4.1-1.1c0,0,0,0,0,0c-3.9-2.2-5.2-7.2-3-11.1c2.2-3.9,7.2-5.2,11.1-3
				c3.9,2.2,5.2,7.2,3,11.1C210.4,52.6,207.6,54,204.8,54z M202.9,49.3c1.9,1.1,4.3,0.4,5.4-1.5c1.1-1.9,0.4-4.3-1.4-5.4
				c-1.9-1.1-4.3-0.4-5.4,1.5C200.3,45.8,201,48.2,202.9,49.3z"/>
		</g>
	</g>
	<g>
		<path class="st0" d="M148.5,224.5c-40,0-82.5-8.3-82.5-23.7c0-0.6,0.2-1.1,0.6-1.5l4.8-4.6c0.8-0.8,2.1-0.8,2.9,0.1
			c0.8,0.8,0.8,2.1-0.1,2.9l-4.1,3.9c1.8,9,33.4,18.8,78.3,18.8c44.9,0,76.5-9.7,78.3-18.8l-4.2-4.2c-0.8-0.8-0.8-2.1,0-2.9
			c0.8-0.8,2.1-0.8,3,0l4.9,4.9c0.4,0.4,0.6,0.9,0.6,1.5C231,216.2,188.5,224.5,148.5,224.5z"/>
		<path class="st0" d="M71.1,96.8"/>
		<path class="st0" d="M67.3,199.4c-1.2,0-2.1-0.9-2.1-2.1V176l-9.4-13.2c-0.3-0.4-0.4-0.8-0.4-1.2v-16.3c0-1.2,0.9-2.1,2.1-2.1
			s2.1,0.9,2.1,2.1v15.6l9.4,13.2c0.3,0.4,0.4,0.8,0.4,1.2v21.9C69.4,198.4,68.4,199.4,67.3,199.4z"/>
		<path class="st0" d="M91.1,151.5"/>
		<path class="st0" d="M71.9,144.2c-7.7,0-14.6-9.3-15.9-21.8c-0.9-8.1,0.9-15.7,4.7-20.3c2-2.5,4.6-4,7.3-4.2
			c8.1-0.8,15.5,8.8,16.8,21.7l0,0c0.9,8.1-0.9,15.7-4.7,20.3c-2,2.5-4.6,4-7.3,4.2C72.5,144.2,72.2,144.2,71.9,144.2z M68.9,102
			c-0.2,0-0.3,0-0.5,0c-1.6,0.2-3.2,1.1-4.5,2.7c-3,3.7-4.5,10.3-3.7,17.3c1.1,10.3,6.7,18.6,12.3,18c1.6-0.2,3.2-1.1,4.5-2.7
			c3-3.7,4.5-10.3,3.7-17.3l0,0C79.6,110.1,74.3,102,68.9,102z"/>
		<path class="st0" d="M148.5,211.6c-34.4,0-64.5-5.7-76.7-14.5c-0.9-0.7-1.1-2-0.5-2.9c0.7-0.9,2-1.1,2.9-0.5
			c11.3,8.2,41.1,13.7,74.2,13.7c32.9,0,62.6-5.5,74-13.6l4.3-5.3c1-1.2,1.5-2.7,1.5-4.2v-7.1c0-1.2,0.9-2.1,2.1-2.1
			c1.2,0,2.1,0.9,2.1,2.1v7.1c0,2.5-0.9,4.9-2.4,6.9l-4.4,5.5c-0.1,0.1-0.2,0.3-0.4,0.4C213,205.9,182.9,211.6,148.5,211.6z"/>
		<path class="st0" d="M68.9,161.2H57.1c-0.8,0-1.4-0.6-1.4-1.4s0.6-1.4,1.4-1.4h11.9c0.8,0,1.4,0.6,1.4,1.4S69.7,161.2,68.9,161.2z
			"/>
		<path class="st0" d="M78.1,171.3H63.5c-0.8,0-1.4-0.6-1.4-1.4s0.6-1.4,1.4-1.4h14.6c0.8,0,1.4,0.6,1.4,1.4S78.9,171.3,78.1,171.3z
			"/>
		<path class="st0" d="M85,181.4H66.9c-0.8,0-1.4-0.6-1.4-1.4s0.6-1.4,1.4-1.4H85c0.8,0,1.4,0.6,1.4,1.4S85.7,181.4,85,181.4z"/>
		<path class="st0" d="M73.4,191.5h-6.6c-0.8,0-1.4-0.6-1.4-1.4c0-0.8,0.6-1.4,1.4-1.4h6.6c0.8,0,1.4,0.6,1.4,1.4
			C74.7,190.9,74.1,191.5,73.4,191.5z"/>
		<path class="st0" d="M63.1,212.4l0.3-7.8c0.1-1.8,1.2-3.3,3-4c1.1-0.4,1.7-1.6,1.3-2.7c-0.4-1.1-1.6-1.7-2.7-1.3
			c-3.4,1.2-5.7,4.2-5.8,7.8l-0.3,8.1C60.3,212.1,61.7,212.1,63.1,212.4z"/>
		<g>
			<path class="st0" d="M218.7,249.5C218.7,249.5,218.7,249.5,218.7,249.5c-0.7-0.4-1.2-0.8-1.8-1.4c-7.5,9.1-20.6,13.1-32.6,9.2
				L69.4,220.6c0,1.3-0.4,2.6-1.1,3.8c0,0.1-0.1,0.2-0.2,0.2L183,261.3c3.5,1.2,7.1,1.7,10.7,1.7c10.4,0,20.5-4.7,26.8-12.7
				C219.9,250.1,219.3,249.8,218.7,249.5z"/>
			<path class="st0" d="M229.7,198.7c-1.1-0.2-2.2,0.6-2.4,1.7l-5.4,33.9c1.4-0.2,2.8,0.1,4.1,0.6l5.4-33.9
				C231.6,200,230.8,198.9,229.7,198.7z"/>
		</g>
		<path class="st0" d="M218.2,135.9"/>
		<path class="st0" d="M186.1,197.5c-7.6,0-15-0.5-20.9-1.1c-4.4-0.4-8.5-2.5-11.5-5.8l-13.4-14.8c-4.6-5-10.4-8.8-16.9-11L90.8,154
			c-0.9-0.3-1.4-1.1-1.4-2v-31.8c0-0.7,0.3-1.3,0.9-1.7l41.3-28.9l5.3-11.9c0.9-2.1,2.6-3.7,4.7-4.7c6-2.7,22-9.1,39.5-11.3
			c22.4-2.8,39,2.1,49.6,14.5c0.5,0.6,10.3,13.1,14.6,33.1c4,18.4,3.7,46.8-20.1,77.6C218.5,195.3,201.9,197.5,186.1,197.5z
			 M93.5,150.5l31.2,10.4c7.2,2.4,13.6,6.6,18.6,12.1l13.4,14.8c2.3,2.5,5.4,4.1,8.8,4.4c29.1,2.8,50-0.1,56-7.9l0,0
			c18.2-23.6,24.7-48.5,19.3-74C237,91.3,227.4,79,227.3,78.9c-23-27.1-74.2-6.5-84.2-2.1c-1.1,0.5-2,1.4-2.5,2.5l-5.5,12.5
			c-0.2,0.3-0.4,0.7-0.7,0.9l-40.9,28.6V150.5z M223.3,185.6L223.3,185.6L223.3,185.6z"/>
		<path class="st0" d="M196.8,44.4C170,40.3,137,53,126.5,57.4c-2.2,0.9-3.9,2.6-4.8,4.7l-5.2,11.9L83,97.2c-0.9,0.7-1.2,2-0.5,2.9
			c0.4,0.6,1.1,0.9,1.7,0.9c0.4,0,0.8-0.1,1.2-0.4l34-23.6c0.3-0.2,0.6-0.5,0.7-0.9l5.5-12.4c0.5-1.1,1.4-2.1,2.6-2.5
			c34.2-14.5,57.1-14.3,69.1-12.4C196.7,47.4,196.6,45.9,196.8,44.4z"/>
		<path class="st0" d="M231,77.2C226.4,67,219.7,58,211.6,50.5c-0.8,1.2-1.9,2.1-3.2,2.7c7.9,7.3,14.4,15.9,18.9,25.8
			c0.5,1,1.7,1.5,2.8,1C231.1,79.5,231.5,78.3,231,77.2z"/>
		<g>
			<path class="st0" d="M143.9,25c-25.5,0-49.5,7.9-67.7,22.3c-18.8,14.9-29.1,35.2-29.1,57.1v22.3c1.4-0.4,2.8-0.4,4.2,0v-22.3
				c0-42.2,40.7-75.2,92.6-75.2c19.6,0,38,5.5,53,15.2c0.2-0.9,0.5-1.7,0.9-2.5c0.3-0.5,0.6-0.9,0.9-1.3
				C183.1,30.6,164.1,25,143.9,25z"/>
			<path class="st0" d="M55.7,139.4c-0.9,1.2-2,2.1-3.3,2.6l37.4,46.9l-9.1-2.9c-2.3-0.7-4.8-0.4-6.7,1.1c-2,1.4-3.1,3.7-3.1,6.1
				v2.3c0,1.2,0.9,2.1,2.1,2.1c1.2,0,2.1-0.9,2.1-2.1v-2.3c0-1.1,0.5-2.1,1.4-2.7c0.9-0.6,2-0.8,3-0.5l9.4,3
				c1.8,0.6,3.6-0.1,4.7-1.6c1-1.5,0.9-3.3-0.2-4.7L55.7,139.4z"/>
		</g>
		<path class="st0" d="M91.4,123.2c-1,0-1.9-0.7-2.1-1.8c-2.5-15.5-13.3-34.8-35.3-38c-1.1-0.2-1.9-1.2-1.8-2.4
			c0.2-1.1,1.2-1.9,2.4-1.8c24.3,3.5,36.1,24.5,38.9,41.4c0.2,1.1-0.6,2.2-1.7,2.4C91.7,123.2,91.6,123.2,91.4,123.2z"/>
	</g>
</g>
</svg>
