<?xml version="1.0" encoding="utf-8"?>
<!-- Generator: Adobe Illustrator 16.0.0, SVG Export Plug-In . SVG Version: 6.00 Build 0)  -->
<!DOCTYPE svg PUBLIC "-//W3C//DTD SVG 1.1//EN" "http://www.w3.org/Graphics/SVG/1.1/DTD/svg11.dtd">
<svg version="1.1" id="Layer_1" xmlns="http://www.w3.org/2000/svg" xmlns:xlink="http://www.w3.org/1999/xlink" x="0px" y="0px"
	 width="288px" height="288px" viewBox="0 0 288 288" enable-background="new 0 0 288 288" xml:space="preserve">
<g>
	<g>
		<path fill="#FFFFFF" d="M165.345,231.731h-45.675c-0.945,0-1.709-0.765-1.709-1.71c0-0.944,0.765-1.709,1.709-1.709h45.675
			c0.944,0,1.709,0.765,1.709,1.709C167.054,230.967,166.289,231.731,165.345,231.731z"/>
		<g>
			<path fill="#FFFFFF" d="M142.507,68.425c-41.452,0-75.176,33.724-75.176,75.176c0,10.31,2.062,20.319,6.127,29.743
				c0.277,0.643,0.805,1.146,1.461,1.389l27.536,10.228v20.834c0,0.898,0.469,1.731,1.238,2.195
				c11.684,7.056,25.106,10.786,38.813,10.786c13.709,0,27.131-3.73,38.813-10.786c0.77-0.464,1.238-1.297,1.238-2.195V184.96
				l27.536-10.228c0.656-0.243,1.184-0.746,1.46-1.389c4.066-9.424,6.128-19.433,6.128-29.743
				C217.683,102.149,183.959,68.425,142.507,68.425z M207.271,170.311l-28.169,10.463c-1.005,0.374-1.671,1.332-1.671,2.403v21.153
				c-3.731,2.149-7.65,3.921-11.69,5.34v-12.631c0-1.415-1.148-2.563-2.564-2.563c-1.415,0-2.563,1.148-2.563,2.563v14.235
				c-2.984,0.797-6.024,1.393-9.099,1.789v-8.724c0-1.415-1.148-2.563-2.563-2.563c-1.416,0-2.564,1.148-2.564,2.563v9.181
				c-1.29,0.071-2.582,0.127-3.879,0.127c-1.748,0-3.487-0.083-5.221-0.212v-9.096c0-1.415-1.148-2.563-2.564-2.563
				c-1.415,0-2.563,1.148-2.563,2.563v8.513c-3.079-0.459-6.117-1.123-9.099-1.983v-13.83c0-1.415-1.148-2.563-2.564-2.563
				s-2.564,1.148-2.564,2.563v12.127c-3.563-1.334-7.033-2.927-10.349-4.836v-21.153c0-1.071-0.666-2.029-1.671-2.403
				l-28.169-10.463c-3.507-8.485-5.284-17.466-5.284-26.709c0-25.589,13.8-48.007,34.341-60.231l6.877,6.532l-4.701,12.536
				c-0.372,0.99-0.097,2.108,0.693,2.813l12.358,11.035c0.489,0.436,1.099,0.651,1.706,0.651c0.706,0,1.407-0.289,1.915-0.856
				c0.943-1.057,0.851-2.677-0.206-3.621l-11.05-9.865l4.681-12.482c0.362-0.963,0.112-2.05-0.634-2.759l-6.904-6.559
				c9.345-4.627,19.857-7.241,30.972-7.241c38.624,0,70.048,31.423,70.048,70.048C212.555,152.845,210.777,161.825,207.271,170.311z
				"/>
			<path fill="#FFFFFF" d="M142.507,158.961c-6.411,0-11.625,5.214-11.625,11.625c0,3.614,1.704,7.016,4.532,9.201v9.249
				c0,1.415,1.148,2.563,2.563,2.563h9.061c1.415,0,2.563-1.148,2.563-2.563v-9.249c2.828-2.186,4.532-5.587,4.532-9.201
				C154.133,164.175,148.918,158.961,142.507,158.961z M145.752,176.208c-0.792,0.457-1.279,1.304-1.279,2.219v8.045h-3.933v-8.045
				c0-0.915-0.487-1.762-1.278-2.219c-2.006-1.161-3.253-3.316-3.253-5.622c0-3.583,2.915-6.497,6.498-6.497
				c3.584,0,6.498,2.914,6.498,6.497C149.005,172.892,147.758,175.047,145.752,176.208z"/>
			<path fill="#FFFFFF" d="M127.024,133.908c-3.719-3.675-9.815-5.446-18.618-5.311c-21.298,0.245-22.944,7.651-22.944,18.088
				c0,10.374,10.548,19.137,23.033,19.137c12.422,0,22.916-8.763,22.916-19.137C131.41,143.062,130.956,137.796,127.024,133.908z
				 M108.495,160.695c-9.538,0-17.905-6.547-17.905-14.01c0-7.955,0-12.755,17.876-12.961c0.222-0.003,0.444-0.003,0.663-0.003
				c6.908,0,11.716,1.289,14.29,3.834c1.981,1.958,2.864,4.774,2.864,9.13C126.283,154.148,117.97,160.695,108.495,160.695z"/>
			<path fill="#FFFFFF" d="M176.438,128.597c-8.842-0.134-14.898,1.636-18.618,5.311c-3.932,3.888-4.386,9.154-4.386,12.777
				c0,10.374,10.494,19.137,22.916,19.137c12.483,0,23.03-8.763,23.03-19.137C199.38,136.249,197.734,128.842,176.438,128.597z
				 M176.35,160.695c-9.477,0-17.789-6.547-17.789-14.01c0-4.356,0.884-7.172,2.864-9.13c2.576-2.545,7.38-3.834,14.29-3.834
				c0.219,0,0.44,0,0.663,0.003c17.875,0.206,17.875,5.006,17.875,12.961C194.253,154.148,185.887,160.695,176.35,160.695z"/>
		</g>
	</g>
	<path fill="#FFFFFF" d="M117.661,253.909l-0.358-1.094c-0.078-0.221-0.146-0.366-0.211-0.454c-0.099-0.138-0.239-0.213-0.396-0.213
		c-0.061,0-0.131,0.012-0.233,0.04l-3.617,1.52l0.335-3.714v-0.173c0-0.245-0.076-0.425-0.229-0.535
		c-0.129-0.089-0.335-0.129-0.664-0.129h-1.117c-0.313,0-0.521,0.04-0.654,0.127c-0.109,0.073-0.239,0.227-0.239,0.537l0.348,3.883
		l-3.394-1.479c-0.064-0.027-0.133-0.046-0.206-0.057c-0.151-0.03-0.391-0.133-0.643,0.181c-0.08,0.098-0.151,0.254-0.216,0.471
		l-0.366,1.121c-0.007,0.04-0.027,0.104-0.055,0.189c-0.053,0.162-0.062,0.21-0.062,0.257c0,0.117,0.038,0.283,0.217,0.418
		c0.115,0.089,0.264,0.148,0.447,0.183l3.576,0.811l-2.393,2.779c-0.091,0.078-0.162,0.165-0.217,0.268
		c-0.059,0.112-0.086,0.206-0.086,0.295c0,0.132,0.057,0.259,0.167,0.377c0.082,0.087,0.189,0.176,0.32,0.267l0.909,0.668
		c0.119,0.094,0.215,0.157,0.3,0.198c0.279,0.142,0.442,0.103,0.645-0.045c0.093-0.071,0.183-0.172,0.27-0.308l1.892-3.189
		l1.903,3.19c0.072,0.12,0.15,0.216,0.239,0.292c0.114,0.095,0.23,0.144,0.347,0.144c0.087,0,0.181-0.024,0.289-0.078
		c0.072-0.037,0.174-0.104,0.301-0.197l0.955-0.682c0.12-0.098,0.214-0.188,0.284-0.268c0.103-0.119,0.153-0.231,0.153-0.341
		c0-0.104-0.024-0.209-0.074-0.313c-0.049-0.105-0.119-0.195-0.187-0.25l-2.419-2.807l3.597-0.81c0.18-0.036,0.321-0.092,0.43-0.174
		c0.177-0.134,0.214-0.291,0.214-0.4c0-0.05-0.01-0.118-0.027-0.196C117.718,254.142,117.696,254.044,117.661,253.909z"/>
	<path fill="#FFFFFF" d="M138.185,253.909l-0.359-1.094c-0.077-0.219-0.145-0.364-0.211-0.456c-0.1-0.136-0.24-0.211-0.396-0.211
		c-0.062,0-0.134,0.013-0.233,0.04c-0.062,0.02-0.126,0.037-0.223,0.066l-3.395,1.453l0.336-3.714v-0.173
		c0-0.247-0.076-0.426-0.23-0.535c-0.129-0.089-0.335-0.129-0.664-0.129h-1.116c-0.318,0-0.519,0.039-0.654,0.127
		c-0.109,0.073-0.239,0.227-0.239,0.537l0.347,3.883l-3.393-1.479c-0.064-0.027-0.133-0.046-0.206-0.057
		c-0.153-0.032-0.39-0.134-0.644,0.181c-0.08,0.098-0.148,0.25-0.215,0.471l-0.365,1.116c-0.009,0.042-0.029,0.108-0.056,0.192
		c-0.053,0.161-0.063,0.212-0.063,0.259c0,0.117,0.038,0.283,0.218,0.419c0.116,0.089,0.265,0.147,0.447,0.182l3.576,0.811
		l-2.393,2.779c-0.089,0.077-0.16,0.163-0.218,0.268c-0.059,0.112-0.086,0.206-0.086,0.295c0,0.13,0.057,0.257,0.167,0.377
		c0.081,0.086,0.188,0.175,0.321,0.267l0.908,0.667c0.114,0.091,0.213,0.156,0.301,0.199c0.289,0.145,0.447,0.099,0.643-0.044
		c0.094-0.071,0.181-0.17,0.271-0.309l1.891-3.189l1.904,3.19c0.072,0.12,0.15,0.216,0.239,0.292
		c0.114,0.095,0.231,0.144,0.347,0.144c0.087,0,0.181-0.024,0.29-0.079c0.072-0.037,0.174-0.103,0.299-0.196l0.955-0.682
		c0.12-0.098,0.214-0.188,0.284-0.268c0.066-0.076,0.154-0.195,0.154-0.341c0-0.105-0.025-0.212-0.073-0.313
		c-0.047-0.102-0.12-0.195-0.189-0.251l-2.419-2.807l3.597-0.81c0.182-0.036,0.323-0.092,0.429-0.173
		c0.179-0.134,0.216-0.292,0.216-0.401c0-0.031-0.003-0.081-0.027-0.196C138.242,254.142,138.22,254.044,138.185,253.909z"/>
	<path fill="#FFFFFF" d="M158.708,253.909l-0.359-1.094c-0.077-0.221-0.146-0.366-0.211-0.454c-0.099-0.138-0.238-0.213-0.396-0.213
		c-0.062,0-0.133,0.012-0.233,0.04c-0.063,0.02-0.126,0.037-0.223,0.066l-3.395,1.453l0.335-3.714v-0.173
		c0-0.245-0.076-0.425-0.229-0.535c-0.13-0.089-0.336-0.129-0.665-0.129h-1.115c-0.315,0-0.522,0.04-0.656,0.127
		c-0.108,0.073-0.238,0.227-0.238,0.537l0.348,3.883l-3.393-1.478c-0.063-0.027-0.133-0.047-0.206-0.058
		c-0.15-0.03-0.391-0.135-0.644,0.181c-0.079,0.097-0.148,0.248-0.216,0.471l-0.367,1.121c-0.006,0.04-0.026,0.104-0.054,0.189
		c-0.054,0.162-0.063,0.21-0.063,0.257c0,0.117,0.038,0.283,0.217,0.418c0.114,0.089,0.265,0.148,0.447,0.183l3.576,0.811
		l-2.395,2.781c-0.091,0.079-0.161,0.165-0.216,0.266c-0.059,0.112-0.085,0.206-0.085,0.295c0,0.132,0.056,0.259,0.167,0.377
		c0.082,0.087,0.189,0.176,0.32,0.267l0.909,0.668c0.114,0.091,0.214,0.156,0.3,0.198c0.278,0.142,0.442,0.103,0.645-0.045
		c0.094-0.071,0.183-0.172,0.27-0.308l1.892-3.189l1.903,3.19c0.069,0.116,0.148,0.214,0.238,0.292
		c0.114,0.095,0.23,0.144,0.347,0.144c0.088,0,0.181-0.024,0.289-0.078c0.073-0.037,0.177-0.104,0.301-0.197l0.956-0.682
		c0.119-0.098,0.214-0.188,0.283-0.268c0.104-0.119,0.152-0.231,0.152-0.341c0-0.104-0.023-0.209-0.073-0.313
		c-0.049-0.105-0.119-0.195-0.188-0.25l-2.419-2.807l3.597-0.81c0.182-0.036,0.323-0.092,0.431-0.174
		c0.177-0.134,0.214-0.291,0.214-0.4c0-0.05-0.01-0.118-0.027-0.196C158.765,254.142,158.743,254.045,158.708,253.909z"/>
	<path fill="#FFFFFF" d="M179.305,254.219c-0.016-0.077-0.037-0.175-0.073-0.31l-0.358-1.093c-0.075-0.214-0.145-0.363-0.213-0.457
		c-0.099-0.136-0.239-0.211-0.395-0.211c-0.061,0-0.132,0.012-0.233,0.04c-0.063,0.02-0.126,0.037-0.223,0.066l-3.395,1.453
		l0.335-3.714v-0.173c0-0.245-0.075-0.425-0.229-0.535c-0.131-0.089-0.335-0.129-0.663-0.129h-1.117
		c-0.313,0-0.521,0.04-0.654,0.127c-0.109,0.073-0.238,0.227-0.238,0.537l0.348,3.883l-3.395-1.479
		c-0.065-0.027-0.135-0.046-0.205-0.057c-0.154-0.03-0.394-0.131-0.643,0.179c-0.079,0.098-0.149,0.25-0.217,0.473l-0.365,1.116
		c-0.008,0.041-0.028,0.107-0.056,0.194c-0.052,0.156-0.063,0.205-0.063,0.257c0,0.116,0.038,0.283,0.219,0.418
		c0.114,0.089,0.264,0.148,0.447,0.183l3.576,0.811l-2.394,2.779c-0.092,0.078-0.161,0.165-0.216,0.266
		c-0.06,0.112-0.088,0.206-0.088,0.297c0,0.131,0.058,0.259,0.167,0.375c0.079,0.086,0.188,0.176,0.322,0.269l0.907,0.667
		c0.114,0.091,0.214,0.156,0.301,0.199c0.288,0.145,0.447,0.099,0.643-0.044c0.096-0.071,0.186-0.174,0.271-0.309l1.891-3.189
		l1.904,3.19c0.072,0.12,0.15,0.216,0.238,0.292c0.114,0.095,0.231,0.144,0.348,0.144c0.087,0,0.181-0.024,0.289-0.078
		c0.071-0.037,0.174-0.104,0.301-0.197l0.954-0.682c0.12-0.098,0.215-0.188,0.283-0.268c0.066-0.076,0.154-0.195,0.154-0.341
		c0-0.105-0.025-0.212-0.073-0.313c-0.047-0.101-0.119-0.194-0.188-0.251l-2.42-2.807l3.596-0.81
		c0.182-0.036,0.322-0.092,0.432-0.174c0.178-0.134,0.215-0.291,0.215-0.4C179.332,254.384,179.329,254.334,179.305,254.219z"/>
	<path fill="#FFFFFF" d="M227.007,188.432c-5.437,0-9.86-4.424-9.86-9.86c0-5.436,4.424-9.857,9.86-9.857s9.859,4.422,9.859,9.857
		C236.866,184.008,232.443,188.432,227.007,188.432z M227.007,173.841c-2.609,0-4.732,2.122-4.732,4.73
		c0,2.609,2.123,4.732,4.732,4.732c2.608,0,4.731-2.123,4.731-4.732C231.738,175.963,229.615,173.841,227.007,173.841z"/>
	<path fill="#FFFFFF" d="M208.01,227.388c-5.437,0-9.859-4.423-9.859-9.859s4.423-9.859,9.859-9.859s9.859,4.423,9.859,9.859
		S213.446,227.388,208.01,227.388z M208.01,212.796c-2.608,0-4.732,2.123-4.732,4.732c0,2.608,2.124,4.732,4.732,4.732
		c2.609,0,4.732-2.124,4.732-4.732C212.742,214.919,210.619,212.796,208.01,212.796z"/>
	<path fill="#FFFFFF" d="M60.993,171.603c-5.436,0-9.859,4.424-9.859,9.86s4.423,9.859,9.859,9.859c5.437,0,9.86-4.423,9.86-9.859
		S66.43,171.603,60.993,171.603z"/>
	<path fill="#FFFFFF" d="M158.93,32.118c-0.707,1.358-1.113,2.897-1.113,4.532c0,5.437,4.423,9.86,9.859,9.86s9.86-4.423,9.86-9.86
		s-4.424-9.859-9.86-9.859c-1.934,0-3.733,0.568-5.258,1.534C160.946,29.257,159.737,30.564,158.93,32.118z M172.408,36.649
		c0,2.609-2.123,4.732-4.732,4.732c-2.608,0-4.731-2.124-4.731-4.732s2.123-4.732,4.731-4.732
		C170.285,31.917,172.408,34.041,172.408,36.649z"/>
	<g>
		<path fill="#FFFFFF" d="M214.717,210.322c4.226-7.261,7.809-14.651,10.629-22.042c-1.756-0.3-3.357-1.058-4.667-2.158
			c-2.763,7.302-6.3,14.611-10.494,21.796C211.912,208.31,213.464,209.155,214.717,210.322z"/>
		<path fill="#FFFFFF" d="M176.422,41.184c-0.806,1.547-2.009,2.851-3.475,3.784c37.692,38.492,54.604,81.515,54.604,107.385
			c0,5.196-0.626,10.729-1.798,16.45c0.411-0.053,0.828-0.089,1.254-0.089c1.359,0,2.655,0.276,3.835,0.776
			c1.196-5.938,1.837-11.7,1.837-17.138C232.679,115.115,204.665,70.046,176.422,41.184z"/>
		<path fill="#FFFFFF" d="M142.507,18c-1.461,0-3.115,0.387-4.888,1.032c-4.559-0.464-34.994-2.989-48.168,11.179
			c-0.665,0.714-0.865,1.743-0.519,2.654c0.344,0.911,1.176,1.549,2.146,1.644c8.529,0.835,16.939,2.66,19.967,4.221
			c-2.166,2.131-4.276,4.3-6.27,6.448c-38.665,41.655-52.44,82.675-52.44,107.173c0,6.945,0.98,14.098,2.723,21.256
			c1.366-1.035,3.004-1.726,4.791-1.934c-1.526-6.514-2.387-13.011-2.387-19.322c0-35.917,27.511-78.302,51.072-103.685
			c2.589-2.79,5.076-5.311,7.468-7.624c0.22-0.153,0.409-0.34,0.57-0.552c12.38-11.859,21.837-17.364,25.934-17.364
			c3.278,0,9.339,3.347,16.423,8.99c0.808-1.553,2.017-2.861,3.488-3.794C156.209,23.338,148.229,18,142.507,18z M114.765,35.164
			c-2.946-2.184-8.666-3.875-17.145-5.051c8.929-5.581,22.45-6.483,31.243-6.386C124.322,26.778,119.472,30.786,114.765,35.164z"/>
		<path fill="#FFFFFF" d="M192.53,239.9c3.928-4.024,7.748-8.521,11.432-13.392c-1.595-0.722-2.963-1.854-3.971-3.266
			c-4.686,6.208-9.598,11.757-14.646,16.498H99.648c-12.863-12.091-25.724-30.243-33.804-49.705
			c-1.434,0.814-3.087,1.286-4.851,1.286c-0.043,0-0.086-0.006-0.129-0.007c7.621,18.608,19.436,36.063,31.628,48.583
			c-6.465,0.946-11.452,6.514-11.452,13.236v3.472c0,7.385,6.009,13.394,13.394,13.394h96.146c7.385,0,13.394-6.009,13.394-13.394
			v-3.472C203.974,246.414,198.992,240.85,192.53,239.9z M198.846,256.606c0,4.559-3.707,8.266-8.266,8.266H94.434
			c-4.559,0-8.266-3.707-8.266-8.266v-3.472c0-4.559,3.708-8.266,8.266-8.266h96.146c4.559,0,8.266,3.707,8.266,8.266V256.606z"/>
	</g>
</g>
</svg>
