<?xml version="1.0" encoding="utf-8"?>
<!-- Generator: Adobe Illustrator 16.0.0, SVG Export Plug-In . SVG Version: 6.00 Build 0)  -->
<!DOCTYPE svg PUBLIC "-//W3C//DTD SVG 1.1//EN" "http://www.w3.org/Graphics/SVG/1.1/DTD/svg11.dtd">
<svg version="1.1" id="Layer_1" xmlns="http://www.w3.org/2000/svg" xmlns:xlink="http://www.w3.org/1999/xlink" x="0px" y="0px"
	 width="288px" height="288px" viewBox="0 0 288 288" enable-background="new 0 0 288 288" xml:space="preserve">
<g>
	<polyline fill="#FFFFFF" points="106.311,118.139 108.431,129.55 131.855,122.583 106.311,118.139 	"/>
	<polygon fill="#FFFFFF" points="130.835,101.278 122.001,106.041 142.606,119.554 	"/>
	<polyline fill="#FFFFFF" points="147.767,116.343 168.791,111.528 162.936,104.449 147.767,116.343 168.791,111.528 	"/>
	<path fill="#FFFFFF" d="M129.598,99.156c-5.451,0-9.887-4.435-9.887-9.887c0-5.451,4.436-9.886,9.887-9.886
		s9.887,4.435,9.887,9.886C139.484,94.721,135.049,99.156,129.598,99.156z M129.598,84.525c-2.616,0-4.745,2.128-4.745,4.744
		c0,2.616,2.129,4.745,4.745,4.745s4.745-2.129,4.745-4.745C134.343,86.653,132.214,84.525,129.598,84.525z"/>
	<path fill="#FFFFFF" d="M105.242,179.963c-5.452,0-9.887-4.436-9.887-9.887c0-5.452,4.435-9.887,9.887-9.887
		c5.451,0,9.887,4.435,9.887,9.887C115.128,175.527,110.693,179.963,105.242,179.963z M105.242,165.331
		c-2.616,0-4.745,2.129-4.745,4.745c0,2.615,2.129,4.745,4.745,4.745c2.616,0,4.745-2.13,4.745-4.745
		C109.987,167.46,107.857,165.331,105.242,165.331z"/>
	<path fill="#FFFFFF" d="M210.07,120.303c-5.451,0-9.887-4.436-9.887-9.887c0-5.452,4.436-9.887,9.887-9.887
		s9.887,4.435,9.887,9.887C219.957,115.867,215.521,120.303,210.07,120.303z M210.07,105.671c-2.616,0-4.745,2.129-4.745,4.745
		c0,2.616,2.129,4.745,4.745,4.745s4.745-2.129,4.745-4.745C214.815,107.8,212.687,105.671,210.07,105.671z"/>
	<path fill="#FFFFFF" d="M154.576,244.627c-5.451,0-9.887-4.436-9.887-9.887s4.436-9.887,9.887-9.887s9.887,4.436,9.887,9.887
		S160.027,244.627,154.576,244.627z M154.576,229.995c-2.616,0-4.745,2.129-4.745,4.745s2.129,4.745,4.745,4.745
		s4.745-2.129,4.745-4.745S157.192,229.995,154.576,229.995z"/>
	<path fill="#FFFFFF" d="M169.834,43.591c-5.451,0-9.887-4.435-9.887-9.887c0-5.451,4.436-9.886,9.887-9.886
		s9.887,4.435,9.887,9.886C179.721,39.156,175.285,43.591,169.834,43.591z M169.834,28.96c-2.616,0-4.745,2.128-4.745,4.744
		c0,2.616,2.129,4.745,4.745,4.745s4.745-2.129,4.745-4.745C174.579,31.089,172.45,28.96,169.834,28.96z"/>
	<path fill="#FFFFFF" d="M162.952,40.788l-27.517,40.521c0.948,0.697,1.771,1.554,2.42,2.539l27.932-41.132
		C164.73,42.239,163.772,41.586,162.952,40.788z"/>
	<path fill="#FFFFFF" d="M79.399,257.465c-5.452,0-9.887-4.435-9.887-9.887c0-5.451,4.435-9.887,9.887-9.887
		c5.451,0,9.887,4.436,9.887,9.887C89.286,253.03,84.851,257.465,79.399,257.465z M79.399,242.834c-2.616,0-4.745,2.129-4.745,4.744
		c0,2.616,2.129,4.745,4.745,4.745c2.616,0,4.745-2.129,4.745-4.745C84.144,244.963,82.015,242.834,79.399,242.834z"/>
	<g>
		<path fill="#FFFFFF" d="M88.884,244.809l57.14-5.133c-0.587-1.013-0.996-2.137-1.192-3.335l-57.638,5.178
			C87.95,242.488,88.53,243.6,88.884,244.809z"/>
		<path fill="#FFFFFF" d="M84.914,239.377l18.537-59.585c-1.155-0.213-2.237-0.628-3.215-1.206l-18.479,59.402
			C82.897,238.269,83.966,238.737,84.914,239.377z"/>
	</g>
	<g>
		<path fill="#FFFFFF" d="M132.168,79.734v-5.793c0-17.609,12.149-32.431,28.505-36.533c-0.465-1.145-0.727-2.394-0.727-3.703
			c0-0.488,0.047-0.963,0.116-1.433c-18.91,4.434-33.037,21.427-33.037,41.669v5.793c0.821-0.222,1.68-0.351,2.571-0.351
			S131.347,79.512,132.168,79.734z"/>
		<path fill="#FFFFFF" d="M179.604,32.272c0.069,0.469,0.116,0.945,0.116,1.433c0,1.31-0.262,2.558-0.727,3.703
			C195.351,41.51,207.5,56.332,207.5,73.941v26.939c0.821-0.222,1.68-0.351,2.57-0.351s1.75,0.129,2.571,0.351V73.941
			C212.642,53.699,198.515,36.706,179.604,32.272z"/>
		<path fill="#FFFFFF" d="M145.934,239.529l-8.479,8.479c-7.113,7.113-16.571,11.03-26.632,11.03
			c-8.188,0-15.953-2.633-22.403-7.432c-0.723,1.612-1.865,2.994-3.288,4.011c7.371,5.554,16.298,8.563,25.69,8.563
			c11.433,0,22.184-4.452,30.268-12.537l8.426-8.427C148.022,242.323,146.781,241.053,145.934,239.529z"/>
		<path fill="#FFFFFF" d="M100.302,178.627c-1.507-0.874-2.761-2.132-3.63-3.642l-16.12,16.119
			c-13.338,13.338-16.005,33.357-8.025,49.381c1.241-1.202,2.794-2.077,4.526-2.5c-6.902-14.066-4.546-31.563,7.135-43.245
			L100.302,178.627z"/>
		<path fill="#FFFFFF" d="M207.5,119.952v25.231c0,6.191-1.477,12.133-4.315,17.493c-1.623-8.271-5.657-15.882-11.72-21.945
			c-1.367-1.367-2.854-2.661-4.434-3.857V73.941c0-9.482-7.714-17.197-17.197-17.197s-17.197,7.715-17.197,17.197v21.182
			c0,1.42,1.151,2.571,2.57,2.571c1.42,0,2.571-1.151,2.571-2.571V73.941c0-6.647,5.407-12.056,12.056-12.056
			s12.056,5.409,12.056,12.056v59.612c-6.303-3.5-13.361-5.36-20.693-5.36c-1.14,0-2.281,0.053-3.418,0.142v-2.219
			c0-1.42-1.151-2.571-2.571-2.571c-1.419,0-2.57,1.151-2.57,2.571v5.088v13.978c0,5.104,2.256,9.914,6.189,13.2
			c3.032,2.532,6.857,3.947,10.795,3.995c0.034,0.033,0.067,0.065,0.1,0.099c2.277,2.276,3.531,5.304,3.531,8.524
			c0,3.219-1.254,6.246-3.531,8.523l-3.176,3.176c-9.63-0.834-18.442-5.278-24.917-12.596c-5.982-6.763-9.336-15.447-9.446-24.452
			c0-0.003-0.001-0.005-0.001-0.007c0-0.005,0.001-0.009,0.001-0.014l-0.014-18.485c0-1.42-1.151-2.571-2.571-2.571
			s-2.571,1.15-2.571,2.571v17.485l-16.875,16.875c1.51,0.868,2.768,2.123,3.642,3.63l13.704-13.704
			c1.09,7.359,4.091,14.338,8.727,20.218l-37.563,37.563c-3.244,3.243-5.03,7.562-5.03,12.16s1.786,8.917,5.03,12.16
			c3.249,3.248,7.567,5.037,12.161,5.037c4.593,0,8.911-1.789,12.16-5.037l46.369-46.369l4.005-4.005
			c3.249-3.248,5.038-7.566,5.038-12.159c0-4.595-1.789-8.914-5.038-12.161c-0.366-0.365-0.748-0.708-1.14-1.037l0,0
			c-0.001-0.001-0.002-0.002-0.003-0.003c-3.021-2.529-6.846-3.943-10.789-3.995c-2.328-2.269-3.646-5.361-3.646-8.622v-11.695
			c8.981-0.802,17.898,1.589,25.191,6.781c0.001,0.001,0.003,0.001,0.004,0.002c1.751,1.247,3.385,2.625,4.856,4.096
			c6.881,6.881,10.79,16.033,11.008,25.767l0,0l0.023,0.867c0,10.061-3.918,19.519-11.031,26.633l-28.465,28.464
			c1.524,0.848,2.794,2.089,3.688,3.582l28.411-28.41c8.086-8.085,12.538-18.835,12.538-30.269c0-0.041-0.002-0.082-0.003-0.123
			c5.64-7.472,8.642-16.324,8.642-25.695v-25.231c-0.821,0.222-1.681,0.351-2.571,0.351S208.321,120.173,207.5,119.952z
			 M119.346,229.899c-2.278,2.276-5.304,3.53-8.524,3.53s-6.248-1.254-8.526-3.53c-2.273-2.273-3.523-5.3-3.523-8.525
			c0-3.225,1.25-6.252,3.523-8.524l37.36-37.359c6.154,6.146,13.882,10.204,22.335,11.764L119.346,229.899z"/>
	</g>
	<path fill="#FFFFFF" d="M197.915,162.673c-0.497-2.21-1.181-4.365-2.063-6.438l-37.746-13.097
		c-0.109-0.038-0.219-0.029-0.328-0.044v2.088c0,0.509,0.043,1.011,0.105,1.508l37.732,13.091l-37.419,65.769
		c0.5,0.198,0.975,0.444,1.431,0.718c-0.09-0.054-0.171-0.119-0.263-0.17l5.716-5.715L197.915,162.673z"/>
	<path fill="#FFFFFF" d="M169.721,162.477c-0.032-0.033-0.065-0.065-0.1-0.099c-0.497-0.006-0.993-0.034-1.485-0.084l-11.994,15.745
		l-23.969-44.767l0.005,7.274l20.402,38.104c1.806,0.936,3.693,1.697,5.633,2.326l12.859-16.878
		C170.67,163.526,170.225,162.98,169.721,162.477z"/>
	<g>
		<path fill="#FFFFFF" d="M203.282,103.247l-16.251-14.403v4.581l14.201,12.586C201.752,104.973,202.446,104.039,203.282,103.247z"
			/>
		<path fill="#FFFFFF" d="M202.787,117.078l-13.079,22.015c0.601,0.535,1.195,1.076,1.757,1.638
			c0.267,0.267,0.508,0.552,0.767,0.824l13.29-22.37C204.488,118.646,203.566,117.93,202.787,117.078z"/>
	</g>
</g>
</svg>
