<?xml version="1.0" encoding="utf-8"?>
<svg version="1.1" id="Layer_1" xmlns="http://www.w3.org/2000/svg" xmlns:xlink="http://www.w3.org/1999/xlink" x="0px" y="0px" viewBox="0 0 500 500" enable-background="new 0 0 500 500" xml:space="preserve">
<g>
	<g>
		<g>
			<path fill="#FFFFFF" d="M436.883,251.389c0-20.679-12.191-39.66-30.71-48.611c1.543-4.938,2.314-10.185,2.314-15.278
				c0-29.63-24.073-53.858-53.857-53.858c-0.309,0-0.463,0-0.771,0c-7.563-29.476-34.414-50.618-65.278-50.618
				c-12.191,0-24.074,3.396-34.723,9.723c0,0-0.154,0-0.154,0.154l-0.154,0.154c-0.154,0.154-0.309,0.309-0.617,0.463
				c0,0,0,0-0.154,0c-0.154,0.154-0.309,0.463-0.463,0.617c0,0,0,0.154-0.154,0.154c-0.154,0.154-0.309,0.463-0.309,0.617
				c0,0,0,0,0,0.154c-0.154,0.309-0.154,0.463-0.309,0.772v0.154c0,0.309-0.154,0.617-0.154,0.771v107.253v91.822v107.253
				c0,0.309,0,0.617,0.154,0.771v0.154c0,0.309,0.154,0.463,0.309,0.771c0,0,0,0,0,0.154c0.154,0.154,0.154,0.463,0.309,0.617
				c0,0,0,0.154,0.154,0.154c0.154,0.154,0.309,0.463,0.463,0.617c0,0,0,0,0.154,0c0.154,0.154,0.309,0.309,0.617,0.463l0.154,0.154
				c0,0,0.154,0,0.154,0.154c10.494,6.327,22.531,9.723,34.723,9.723c33.18,0,61.574-24.691,66.513-57.099
				c29.476-0.309,53.24-24.229,53.24-53.858c0-2.315-0.154-4.784-0.463-7.099C425.617,289.814,436.883,271.451,436.883,251.389z
				 M400.771,291.975c-0.154,0-0.154,0.155-0.309,0.155c-0.154,0.154-0.309,0.154-0.617,0.309c-0.154,0.154-0.154,0.154-0.309,0.309
				s-0.309,0.154-0.309,0.309c-0.154,0.154-0.154,0.309-0.309,0.309c-0.154,0.154-0.154,0.154-0.309,0.309s-0.154,0.309-0.154,0.463
				s-0.154,0.309-0.154,0.463s-0.154,0.309-0.154,0.463s-0.154,0.309-0.154,0.464c0,0.154,0,0.309,0,0.463s0,0.309,0,0.463
				s0,0.463,0,0.617s0,0.154,0,0.309c0.617,2.932,0.926,5.863,0.926,8.796c0,23.92-19.136,43.519-42.901,44.29
				c0-0.309,0-0.463,0-0.771c0-6.79-1.08-13.271-2.933-19.444c3.858-1.698,7.563-4.167,10.648-7.253
				c6.327-6.328,10.186-14.814,10.494-23.92c0.154-2.623-1.852-4.784-4.63-4.938c-2.623-0.154-4.784,1.853-4.938,4.63
				c-0.309,6.636-3.086,12.809-7.716,17.438c-2.16,2.161-4.63,3.858-7.253,5.094c-7.716-16.513-21.914-29.631-39.969-35.494
				c-2.47-0.771-5.248,0.463-6.02,3.086c-0.771,2.469,0.463,5.247,3.087,6.019c23.766,7.87,39.66,29.938,39.66,54.938
				c0,1.697-0.154,3.549-0.309,4.938c-2.469,29.63-27.777,52.932-57.562,52.932c-9.568,0-18.981-2.469-27.469-6.944v-35.494
				c0.771,0,1.697,0.154,2.469,0.154c4.938,0,9.877-1.08,14.352-2.932c3.396-1.543,7.1-2.314,10.803-2.314l0,0
				c6.636,0,12.963,2.469,17.747,6.944c0.926,0.771,2.006,1.234,3.241,1.234c1.234,0,2.623-0.463,3.549-1.544
				c1.852-2.006,1.697-4.938-0.309-6.789c-5.71-5.247-12.963-8.488-20.524-9.26c4.167-5.71,6.636-12.5,6.944-19.753
				c0.154-2.624-2.006-4.784-4.63-4.938s-4.784,2.006-4.938,4.63c-0.309,6.636-2.932,12.809-7.716,17.593
				c-2.16,2.16-4.63,3.857-7.253,5.092c-0.463,0.154-0.926,0.309-1.234,0.617c-3.858,1.544-8.18,2.315-12.5,1.853v-59.567v-91.822
				v-66.821c2.777,2.161,5.863,3.858,9.104,5.093c3.396,1.389,6.327,3.241,8.95,5.864c4.631,4.629,7.408,10.957,7.717,17.438
				c0.154,2.624,2.16,4.63,4.783,4.63h0.154c2.624-0.154,4.631-2.315,4.631-4.938c-0.309-7.716-3.087-15.124-8.025-20.988
				c6.944-1.08,13.58-4.167,18.827-9.105c2.006-1.852,2.006-4.784,0.309-6.79c-1.697-2.006-4.784-2.006-6.79-0.309
				c-4.938,4.476-11.266,6.944-17.901,6.944c-3.087,0-6.019-0.463-8.796-1.543c-0.463-0.154-0.771-0.309-1.234-0.463
				c-4.63-2.006-8.797-5.247-11.729-9.568c0,0,0,0-0.154-0.154V99.537c8.487-4.63,17.9-6.944,27.469-6.944
				c27.778,0,51.697,19.753,56.79,47.068l0,0c0.771,3.704,1.08,7.407,1.08,10.802c0,23.92-15.123,45.679-37.5,54.167
				c-6.636,2.469-13.426,3.704-20.37,3.704c-2.623,0-4.783,2.16-4.783,4.784s2.16,4.784,4.783,4.784
				c5.093,0,10.186-0.617,15.277-1.852c-2.16,4.63-3.395,9.876-3.395,15.124c0,9.105,3.395,17.593,9.414,24.229
				c0.926,1.08,2.16,1.543,3.549,1.543c1.08,0,2.314-0.463,3.241-1.234c2.006-1.853,2.006-4.784,0.309-6.79
				c-4.476-4.938-6.944-11.266-6.944-17.901c0-8.796,4.32-16.976,11.573-21.914c0.309-0.154,0.618-0.463,0.772-0.771
				c8.024-4.784,14.969-11.111,20.524-18.519c3.857,1.234,7.407,3.395,10.339,6.327c2.778,2.778,4.938,6.173,6.173,9.876
				c0.618,2.006,2.47,3.241,4.476,3.241c0.463,0,1.08-0.154,1.543-0.309c2.47-0.926,3.704-3.549,2.933-6.019
				c-1.852-5.093-4.63-9.568-8.487-13.426c-3.396-3.395-7.563-6.019-11.883-7.871c5.092-9.568,7.87-20.37,7.87-31.481
				c0-2.315-0.154-4.784-0.463-7.253c23.92,0.463,43.364,20.216,43.364,44.29c0,4.012-0.617,8.025-1.698,12.037
				c-4.629-1.234-9.413-2.006-14.197-2.006c-2.623,0-4.784,2.161-4.784,4.784s2.161,4.784,4.784,4.784
				c5.247,0,10.494,0.926,15.433,2.778l0,0c17.283,6.481,28.857,23.148,28.857,41.358
				C427.314,268.981,416.821,284.877,400.771,291.975z"/>
			<path fill="#FFFFFF" d="M370.216,248.457c0-4.013,0.926-7.716,2.624-11.266c1.08-2.315,0.154-5.247-2.315-6.327
				c-2.314-1.08-5.247-0.154-6.327,2.315c-2.314,4.784-3.549,10.031-3.549,15.432c0,9.104,3.395,17.746,9.413,24.383
				c0.926,1.08,2.161,1.543,3.55,1.543c1.08,0,2.314-0.463,3.24-1.234c2.007-1.852,2.007-4.784,0.309-6.791
				C372.686,261.574,370.216,255.093,370.216,248.457z"/>
		</g>
		<g>
			<g>
				<path fill="#FFFFFF" d="M196.296,135.803c-1.698-2.624-2.932-5.71-3.549-8.951l-50.772,17.284
					c1.698,2.778,2.778,5.71,3.241,8.951L196.296,135.803z"/>
				<path fill="#FFFFFF" d="M222.222,146.914c-1.543,0.309-3.241,0.463-4.784,0.463c-0.154,0-0.154,0-0.309,0
					c-1.543,0-2.932-0.154-4.321-0.463l0.154,30.401c1.543-0.309,3.086-0.463,4.63-0.463c0.154,0,0.154,0,0.309,0
					c1.543,0,3.086,0.154,4.629,0.463L222.222,146.914z"/>
				<path fill="#FFFFFF" d="M141.049,352.932l51.543,20.063c0.309-3.241,1.389-6.328,2.778-9.105l-50.463-19.753
					C144.29,347.223,142.901,350.154,141.049,352.932z"/>
				<path fill="#FFFFFF" d="M197.068,307.562c-1.852-2.623-3.241-5.556-4.012-8.642l-3.858,1.852l-13.581-30.71L208.179,225
					c-3.086-1.234-5.71-2.932-8.025-5.093l-29.012,40.124l-13.889-31.328l38.581-14.043c-1.698-2.778-2.778-5.71-3.241-8.951
					l-39.198,14.197l-18.673-42.438c-2.624,1.852-5.556,3.086-8.642,3.858l18.364,41.821l-34.876,12.654
					c0.926,1.852,1.852,3.704,2.315,5.71c0.309,1.081,0.463,2.161,0.617,3.241l35.802-12.963l16.358,37.037l-33.951,47.067
					c2.778,1.235,5.401,3.087,7.716,5.402l0.154,0.154l30.556-42.439l11.42,25.927l-39.969,18.981
					c1.852,2.623,3.241,5.556,4.167,8.642l39.661-18.827l18.364,41.821c2.624-1.853,5.556-3.241,8.642-3.858l-18.519-41.975
					L197.068,307.562z"/>
			</g>
		</g>
	</g>
	<g>
		<path fill="#FFFFFF" d="M217.284,147.376c-0.155,0-0.155,0-0.309,0c-13.734-0.154-24.691-11.419-24.537-25.154
			c0.154-13.734,11.419-24.691,25.154-24.537c6.636,0.154,12.809,2.778,17.438,7.562c4.63,4.784,7.099,10.957,7.099,17.747
			c-0.155,6.636-2.778,12.809-7.562,17.438C230.093,144.907,223.92,147.376,217.284,147.376z M217.284,107.099
			c-4.013,0-7.871,1.543-10.648,4.321c-2.932,2.932-4.629,6.636-4.629,10.802c-0.154,8.488,6.636,15.432,15.124,15.586h0.154
			c4.012,0,7.87-1.543,10.648-4.321c2.932-2.932,4.629-6.636,4.629-10.803c0-4.167-1.543-8.024-4.321-10.957
			c-2.932-2.932-6.636-4.63-10.802-4.63l0,0C217.438,107.099,217.438,107.099,217.284,107.099z"/>
		<path fill="#FFFFFF" d="M120.679,181.79c-0.154,0-0.154,0-0.309,0c-6.636-0.154-12.809-2.778-17.438-7.562
			c-4.63-4.784-7.099-10.957-7.099-17.747c0.154-6.636,2.778-12.809,7.562-17.438c4.63-4.629,10.803-7.099,17.438-7.099
			c0.154,0,0.154,0,0.309,0c6.636,0.154,12.809,2.778,17.438,7.562c4.63,4.784,7.099,10.957,7.099,17.747
			C145.37,170.833,134.259,181.79,120.679,181.79z M120.679,141.512c-4.013,0-7.871,1.543-10.648,4.321
			c-2.932,2.932-4.629,6.636-4.629,10.802c0,4.167,1.543,8.025,4.321,10.957c2.932,2.932,6.636,4.629,10.803,4.629h0.154
			c8.333,0,15.278-6.79,15.278-15.124c0-4.167-1.543-8.024-4.321-10.957c-2.932-2.932-6.636-4.63-10.802-4.63l0,0
			C120.833,141.512,120.833,141.512,120.679,141.512z"/>
		<path fill="#FFFFFF" d="M217.284,226.697c-0.155,0-0.155,0-0.309,0c-13.734-0.154-24.691-11.419-24.537-25.154
			c0.154-13.58,11.265-24.537,24.846-24.537c0.154,0,0.154,0,0.309,0c6.636,0.154,12.809,2.778,17.438,7.562
			c4.63,4.784,7.099,10.957,7.099,17.747C241.975,215.741,230.864,226.697,217.284,226.697z M217.284,186.42
			c-8.333,0-15.278,6.79-15.278,15.123c0,4.167,1.543,8.025,4.321,10.957c2.932,2.932,6.636,4.63,10.803,4.63h0.154
			c8.333,0,15.277-6.791,15.277-15.124c0-4.167-1.543-8.025-4.321-10.957c-2.932-2.932-6.636-4.629-10.802-4.629l0,0
			C217.438,186.42,217.438,186.42,217.284,186.42z"/>
		<g>
			<path fill="#FFFFFF" d="M87.963,272.686c-4.321,0-8.642-1.08-12.5-3.396c-5.71-3.396-9.876-8.796-11.574-15.124
				c-3.549-13.271,4.476-26.851,17.747-30.4c6.481-1.698,13.117-0.772,18.827,2.623c5.71,3.396,9.876,8.796,11.574,15.124
				c1.697,6.327,0.771,13.118-2.624,18.828c-3.395,5.709-8.796,9.876-15.124,11.574C92.284,272.377,90.124,272.686,87.963,272.686z
				 M88.117,232.407c-1.234,0-2.624,0.154-3.858,0.463c-8.179,2.16-13.117,10.494-10.957,18.672c1.081,4.013,3.55,7.254,7.099,9.414
				c3.549,2.006,7.716,2.623,11.574,1.543c4.013-1.08,7.253-3.549,9.414-7.099c2.006-3.55,2.624-7.716,1.543-11.574l0,0
				c-1.08-4.012-3.549-7.253-7.099-9.414C93.364,233.179,90.741,232.407,88.117,232.407z"/>
		</g>
		<g>
			<path fill="#FFFFFF" d="M217.284,318.056c-0.155,0-0.155,0-0.309,0c-13.734-0.154-24.691-11.42-24.537-25.154
				c0.154-13.581,11.265-24.537,24.846-24.537c0.154,0,0.154,0,0.309,0l0,0c13.734,0.154,24.691,11.42,24.537,25.154
				c-0.154,6.636-2.777,12.809-7.562,17.438C230.093,315.586,223.92,318.056,217.284,318.056z M217.284,277.777
				c-8.333,0-15.278,6.791-15.278,15.124c-0.154,8.487,6.636,15.433,15.124,15.587c4.167,0,8.024-1.544,10.957-4.322
				c2.932-2.932,4.63-6.635,4.63-10.802c0.154-8.487-6.636-15.433-15.124-15.587l0,0
				C217.438,277.777,217.438,277.777,217.284,277.777z"/>
		</g>
		<g>
			<path fill="#FFFFFF" d="M217.284,400.617c-0.155,0-0.155,0-0.309,0c-13.734-0.154-24.691-11.42-24.537-25.154
				c0.154-6.636,2.777-12.809,7.562-17.438c4.784-4.631,11.111-7.1,17.747-7.1c6.636,0.154,12.809,2.777,17.438,7.563
				c4.63,4.783,7.099,10.956,7.099,17.746C241.975,389.66,230.864,400.617,217.284,400.617z M217.284,360.34
				c-4.013,0-7.871,1.543-10.648,4.32c-2.932,2.933-4.629,6.637-4.629,10.803c-0.154,8.488,6.636,15.432,15.124,15.586h0.154
				c8.333,0,15.277-6.789,15.277-15.123c0-4.166-1.543-8.024-4.321-10.957c-2.932-2.932-6.636-4.629-10.802-4.629l0,0
				C217.438,360.34,217.438,360.34,217.284,360.34z"/>
		</g>
		<g>
			<path fill="#FFFFFF" d="M120.679,363.58c-0.154,0-0.154,0-0.309,0c-6.636-0.154-12.809-2.777-17.438-7.562
				c-4.63-4.784-7.099-10.957-7.099-17.747c0.154-6.636,2.778-12.809,7.562-17.438c4.784-4.631,10.957-7.1,17.747-7.1l0,0
				c6.636,0.154,12.809,2.777,17.438,7.563c4.63,4.783,7.099,10.956,7.099,17.746c-0.154,6.637-2.778,12.809-7.562,17.438
				C133.333,360.957,127.315,363.58,120.679,363.58z M120.679,323.303c-4.013,0-7.871,1.543-10.648,4.32
				c-2.932,2.933-4.629,6.637-4.629,10.803c0,4.167,1.543,8.025,4.321,10.957c2.932,2.932,6.636,4.629,10.803,4.629h0.154
				c4.012,0,7.87-1.543,10.648-4.32c2.932-2.932,4.63-6.636,4.63-10.803c0-4.166-1.543-8.024-4.321-10.957
				c-2.932-2.932-6.636-4.629-10.802-4.629l0,0C120.833,323.303,120.833,323.303,120.679,323.303z"/>
		</g>
	</g>
</g>
</svg>
