<?xml version="1.0" encoding="utf-8"?>
<svg version="1.1" id="Layer_1" xmlns="http://www.w3.org/2000/svg" xmlns:xlink="http://www.w3.org/1999/xlink" x="0px" y="0px" viewBox="0 0 500 500" enable-background="new 0 0 500 500" xml:space="preserve">
<g>
	<path fill="#FFFFFF" d="M371.914,121.142"/>
	<g>
		<path fill="#FFFFFF" d="M251.234,402.623c-0.309,0-0.617,0-1.08-0.154c-0.309-0.154-31.944-14.506-63.271-37.037
			c-42.438-30.709-63.889-61.266-63.889-90.895V140.278c0-1.081,0.772-2.161,1.852-2.469l125.617-36.729
			c1.389-0.463,2.777,0.309,3.086,1.698c0.463,1.389-0.309,2.778-1.697,3.086L128.086,142.13v132.253
			c0,66.975,122.839,122.84,124.074,123.303c1.234,0.617,1.852,2.006,1.234,3.395C253.086,402.16,252.16,402.623,251.234,402.623z"
			/>
		<path fill="#FFFFFF" d="M251.234,400.154"/>
	</g>
	<path fill="#FFFFFF" d="M229.475,305.401c-0.926,0-2.006-0.463-2.623-1.081l-50.154-50.154c-1.543-1.543-1.543-3.857,0-5.4
		c1.543-1.543,3.858-1.543,5.401,0l47.531,47.531l109.722-109.723c1.544-1.543,3.858-1.543,5.401,0c1.543,1.543,1.543,3.858,0,5.401
		L232.407,304.32C231.481,305.093,230.401,305.401,229.475,305.401z"/>
	<g>
		<path fill="#FFFFFF" d="M251.234,440.586h-0.154c-8.179-0.154-14.66-6.79-14.506-14.969c0.154-8.024,6.636-14.506,14.66-14.506
			h0.154c3.858,0,7.563,1.697,10.34,4.475c2.777,2.778,4.166,6.482,4.166,10.494C265.895,434.104,259.26,440.586,251.234,440.586z
			 M251.234,418.827c-3.858,0-7.099,3.087-7.099,7.099c0,4.013,3.086,7.253,7.099,7.253c0,0,0,0,0.154,0
			c3.858,0,7.1-3.086,7.1-7.099c0-1.852-0.772-3.703-2.007-5.093C255.093,419.599,253.24,418.827,251.234,418.827L251.234,418.827z"
			/>
	</g>
	<g>
		<path fill="#FFFFFF" d="M413.271,292.438c-1.08-3.858-3.395-6.944-6.79-8.95c-7.099-4.014-16.05-1.698-20.062,5.4
			c-2.006,3.396-2.47,7.408-1.543,11.111c1.08,3.857,3.395,6.944,6.79,8.951c2.314,1.234,4.783,2.006,7.407,2.006
			c1.234,0,2.623-0.154,3.857-0.463c3.858-1.08,6.945-3.396,8.951-6.791C413.889,300.154,414.352,296.143,413.271,292.438z"/>
		<path fill="#FFFFFF" d="M108.179,283.488c-7.099-4.014-16.05-1.698-20.062,5.4c-2.006,3.396-2.469,7.408-1.543,11.111
			c1.08,3.857,3.395,6.944,6.79,8.951c2.315,1.234,4.784,2.006,7.407,2.006c1.235,0,2.624-0.154,3.858-0.463
			c3.858-1.08,6.944-3.396,8.95-6.791c2.006-3.395,2.469-7.406,1.543-11.11S111.729,285.494,108.179,283.488z"/>
	</g>
	<path fill="#FFFFFF" d="M111.42,306.481c-1.852,1.853-4.013,3.241-6.636,3.858c10.648,25.463,33.796,51.234,69.599,77.006
		c23.765,17.284,47.839,30.401,62.191,37.654c0.154-2.623,0.926-5.247,2.314-7.253C207.716,401.852,132.716,358.797,111.42,306.481z
		"/>
	<path fill="#FFFFFF" d="M391.821,308.951c-0.463-0.309-0.926-0.617-1.39-0.926c-22.067,51.543-95.833,93.826-126.852,109.876
		c1.389,2.16,2.16,4.63,2.314,7.253c14.353-7.253,38.271-20.524,62.191-37.654c35.494-25.617,58.643-51.389,69.291-76.543
		C395.524,310.648,393.519,310.031,391.821,308.951z"/>
	<g>
		<path fill="#FFFFFF" d="M251.234,88.734h-0.154c-3.858,0-7.562-1.697-10.339-4.475s-4.167-6.481-4.167-10.494
			c0-3.858,1.697-7.562,4.475-10.34s6.481-4.167,10.494-4.167c3.858,0,7.563,1.698,10.34,4.475
			c2.777,2.778,4.166,6.481,4.166,10.494c0,3.858-1.697,7.562-4.475,10.339S255.093,88.734,251.234,88.734z M251.234,66.821
			c-1.852,0-3.704,0.772-4.938,2.006c-1.389,1.389-2.161,3.086-2.161,5.093c0,1.852,0.771,3.704,2.006,5.092
			c1.389,1.389,3.086,2.161,5.092,2.161s3.704-0.771,5.093-2.006c1.389-1.389,2.161-3.086,2.161-5.092
			c0-1.852-0.772-3.704-2.007-5.093C255.093,67.747,253.24,66.976,251.234,66.821L251.234,66.821z"/>
	</g>
	<g>
		<path fill="#FFFFFF" d="M105.71,122.068L239.506,82.87c-1.543-2.006-2.469-4.475-2.778-7.099l-135.803,39.815
			c-1.543,0.463-2.778,2.006-2.778,3.549v159.567c0,0.927,0,2.007,0,2.933c2.469-0.463,5.093-0.309,7.562,0.617
			c0-1.234-0.154-2.314-0.154-3.55V122.068H105.71z"/>
		<path fill="#FFFFFF" d="M401.543,115.586L265.74,75.771c-0.309,2.624-1.234,4.938-2.777,7.099l133.797,39.198v156.635
			c0,0.927,0,2.007,0,2.933c2.469-0.463,5.092-0.154,7.562,0.771c0-1.234,0.154-2.469,0.154-3.704V119.29
			C404.321,117.593,403.24,116.049,401.543,115.586z"/>
	</g>
</g>
</svg>
