<?xml version="1.0" encoding="utf-8"?>
<svg version="1.0" id="Layer_1" xmlns="http://www.w3.org/2000/svg" xmlns:xlink="http://www.w3.org/1999/xlink" x="0px" y="0px" viewBox="0 0 288 288" enable-background="new 0 0 288 288" xml:space="preserve">
<g>
	<g>
		<path fill="#FFFFFF" d="M219.328,92.182c-1.504,0-3.027-0.382-4.422-1.187c-4.238-2.446-5.694-7.886-3.248-12.123
			c2.444-4.238,7.882-5.694,12.122-3.248c4.237,2.446,5.695,7.885,3.248,12.123C225.387,90.591,222.396,92.182,219.328,92.182z
			 M219.352,78.988c-1.495,0-2.952,0.775-3.752,2.16c-1.191,2.064-0.481,4.712,1.583,5.905c2.063,1.191,4.713,0.481,5.904-1.583
			c1.19-2.064,0.481-4.714-1.582-5.905C220.826,79.175,220.084,78.988,219.352,78.988z"/>
	</g>
	<path fill="#FFFFFF" d="M109.335,48.823C97.121,48.825,84.278,34.347,83.616,33.59c-0.691-0.79-0.753-1.949-0.15-2.807
		c0.602-0.859,1.716-1.194,2.689-0.813c0.15,0.058,15.397,5.823,20.505-3.97c4.169-7.992,11.992-13.358,22.621-15.521
		c7.852-1.597,14.436-0.898,14.713-0.87c1.249,0.138,2.149,1.261,2.012,2.509c-0.137,1.249-1.242,2.15-2.509,2.017
		c-0.24-0.025-24.25-2.42-32.801,13.972c-3.771,7.226-11.348,8.663-17.915,8.031c5.999,5.129,15.451,11.253,22.152,6.286
		c13.351-9.906,29.259-1.122,29.931-0.744c1.095,0.618,1.481,2.006,0.864,3.102c-0.62,1.095-2.005,1.479-3.102,0.864
		c-0.136-0.077-14.03-7.692-24.982,0.436C115.021,48.029,112.193,48.822,109.335,48.823z"/>
	<g>
		<path fill="#FFFFFF" d="M99.49,227.303c-0.421,0-0.842-0.116-1.212-0.35l-9.191-5.781c-0.663-0.417-1.064-1.145-1.064-1.927
			v-5.132c0-0.909,0.542-1.731,1.378-2.092l9.192-3.944c0.707-0.301,1.513-0.228,2.15,0.19c0.639,0.423,1.024,1.137,1.024,1.901
			v14.858c0,0.828-0.451,1.591-1.175,1.993C100.247,227.208,99.868,227.303,99.49,227.303z M92.575,217.988l4.639,2.918v-7.283
			l-4.639,1.99V217.988z"/>
		<path fill="#FFFFFF" d="M116.519,238.014c-0.421,0-0.842-0.117-1.212-0.35l-9.19-5.78c-0.663-0.417-1.064-1.145-1.064-1.927
			v-23.153c0-0.909,0.542-1.732,1.378-2.091l9.19-3.944c0.704-0.304,1.511-0.229,2.15,0.189c0.639,0.423,1.024,1.137,1.024,1.901
			v32.878c0,0.828-0.45,1.592-1.175,1.993C117.276,237.919,116.897,238.014,116.519,238.014z M109.605,228.7l4.638,2.917v-25.304
			l-4.638,1.99V228.7z"/>
		<path fill="#FFFFFF" d="M133.549,248.475h-0.4c-0.429,0-0.849-0.121-1.212-0.35l-8.792-5.529
			c-0.662-0.417-1.064-1.145-1.064-1.927v-41.173c0-0.91,0.542-1.732,1.378-2.093l9.192-3.944c0.708-0.3,1.513-0.227,2.15,0.191
			c0.639,0.422,1.024,1.136,1.024,1.9v50.648C135.825,247.456,134.806,248.475,133.549,248.475z M126.634,239.412l4.64,2.918
			v-43.325l-4.64,1.99V239.412z"/>
		<g>
			<path fill="#FFFFFF" d="M188.003,227.303c-0.378,0-0.758-0.095-1.102-0.282c-0.725-0.402-1.175-1.165-1.175-1.993v-14.858
				c0-0.765,0.385-1.479,1.023-1.901c0.638-0.418,1.449-0.493,2.15-0.189l9.19,3.944c0.836,0.359,1.378,1.182,1.378,2.091v5.132
				c0,0.782-0.401,1.51-1.063,1.927l-9.19,5.781C188.846,227.187,188.423,227.303,188.003,227.303z M190.278,213.623v7.283
				l4.639-2.918v-2.375L190.278,213.623z"/>
			<path fill="#FFFFFF" d="M170.974,238.014c-0.378,0-0.757-0.095-1.101-0.283c-0.725-0.401-1.176-1.165-1.176-1.993v-32.878
				c0-0.765,0.386-1.479,1.024-1.901c0.637-0.419,1.449-0.493,2.15-0.189l9.189,3.944c0.836,0.358,1.378,1.182,1.378,2.091v23.153
				c0,0.782-0.401,1.51-1.063,1.927l-9.19,5.78C171.815,237.896,171.395,238.014,170.974,238.014z M173.25,206.313v25.304
				l4.638-2.917v-20.396L173.25,206.313z"/>
			<path fill="#FFFFFF" d="M154.342,248.475h-0.398c-1.257,0-2.276-1.019-2.276-2.275v-50.648c0-0.765,0.386-1.479,1.024-1.9
				c0.637-0.418,1.446-0.491,2.149-0.191l9.192,3.944c0.835,0.36,1.378,1.183,1.378,2.093v41.173c0,0.782-0.401,1.51-1.064,1.927
				l-8.793,5.529C155.191,248.354,154.771,248.475,154.342,248.475z M156.22,199.005v43.325l4.64-2.919v-38.416L156.22,199.005z"/>
		</g>
	</g>
	<g>
		<path fill="#FFFFFF" d="M150.169,261.555c-0.525,0-1.037-0.273-1.317-0.763c-0.418-0.727-0.166-1.653,0.562-2.07
			c1.146-0.658,2.405-1.39,3.758-2.194c8.039-4.771,15.986-9.992,22.986-15.104c0.677-0.494,1.625-0.347,2.12,0.331
			c0.493,0.677,0.347,1.625-0.33,2.12c-7.177,5.241-14.991,10.377-23.228,15.263c-1.366,0.812-2.638,1.553-3.798,2.217
			C150.685,261.49,150.426,261.555,150.169,261.555z"/>
		<path fill="#FFFFFF" d="M137.323,261.555c-0.256,0-0.516-0.064-0.752-0.201c-1.161-0.664-2.432-1.405-3.799-2.219
			c-8.234-4.884-16.05-10.02-23.226-15.261c-0.677-0.495-0.824-1.443-0.33-2.12c0.495-0.675,1.443-0.825,2.12-0.331
			c7,5.112,14.947,10.334,22.984,15.103c1.354,0.807,2.614,1.538,3.759,2.196c0.728,0.417,0.979,1.344,0.562,2.07
			C138.361,261.281,137.85,261.555,137.323,261.555z"/>
	</g>
	<path fill="#FFFFFF" d="M143.745,273.068"/>
	<path fill="#FFFFFF" d="M83.02,141.307c-0.44,0-0.877-0.127-1.255-0.378c-0.637-0.42-1.021-1.133-1.021-1.898v-29.817
		c0-0.913,0.545-1.736,1.386-2.094l41.16-17.512c0.703-0.304,1.507-0.227,2.146,0.195c0.637,0.421,1.021,1.134,1.021,1.898v29.816
		c0,0.913-0.545,1.737-1.386,2.094l-41.16,17.512C83.625,141.248,83.322,141.307,83.02,141.307z M85.296,110.719v24.869
		l36.608-15.575V95.144L85.296,110.719z M124.18,121.519h0.015H124.18z"/>
	<polygon fill="#FFFFFF" points="94.451,131.693 97.485,130.402 97.485,116.388 121.904,106.471 121.904,103.196 96.015,113.71 
		87.631,109.726 85.296,110.719 85.296,111.975 94.451,116.325 	"/>
	<path fill="#FFFFFF" d="M206.523,141.307c-0.302,0-0.604-0.059-0.891-0.182l-41.16-17.512c-0.84-0.357-1.385-1.181-1.385-2.094
		V91.702c0-0.765,0.384-1.478,1.021-1.898c0.636-0.422,1.442-0.5,2.146-0.195l41.16,17.512c0.84,0.357,1.386,1.181,1.386,2.094
		v29.817c0,0.765-0.384,1.478-1.021,1.898C207.4,141.179,206.964,141.307,206.523,141.307z M167.64,120.013l36.607,15.575v-24.869
		L167.64,95.144V120.013z"/>
	<polygon fill="#FFFFFF" points="201.912,109.726 193.528,113.71 167.64,103.196 167.64,106.471 192.059,116.388 192.059,130.402 
		195.093,131.693 195.093,116.325 204.247,111.975 204.247,110.719 	"/>
	<path fill="#FFFFFF" d="M219.328,92.182c-0.697,0-1.397-0.091-2.088-0.26v62.809l-48.031-20.616
		c-0.771-0.332-1.661,0.025-1.993,0.795c-0.33,0.771,0.025,1.663,0.796,1.993l9.227,3.96c-0.012,0.077-0.023,0.154-0.023,0.235
		v20.155l-31.191-13.5v-93.67l31.457,13.5V87.02c0,0.91,0.542,1.732,1.378,2.091l15.003,6.44c0.704,0.305,1.515,0.229,2.15-0.19
		c0.639-0.422,1.023-1.136,1.023-1.901V75.979l13.573,5.824c0.172-1.005,0.511-1.997,1.05-2.93c0.251-0.435,0.54-0.833,0.85-1.208
		l-16.851-7.232c-0.705-0.299-1.513-0.227-2.149,0.191c-0.026,0.017-0.045,0.042-0.07,0.06l-11.405,5.419V66.084
		c0-0.91-0.542-1.732-1.378-2.092l-34.633-14.863V8.336c0-1.257-1.02-2.276-2.276-2.276c-1.257,0-2.276,1.019-2.276,2.276V49.13
		l-34.631,14.862c-0.836,0.36-1.378,1.183-1.378,2.092v10.018l-11.405-5.419c-0.025-0.018-0.043-0.042-0.069-0.06
		c-0.637-0.418-1.446-0.494-2.15-0.19l-16.478,7.071c1.02,1.181,1.699,2.597,1.995,4.098l13.105-5.624v17.481
		c0,0.765,0.385,1.479,1.024,1.901c0.642,0.419,1.449,0.495,2.15,0.19l15.003-6.44c0.836-0.359,1.378-1.181,1.378-2.091V67.584
		l31.458-13.5v8.753c0,0.005,0.001,0.01,0.001,0.015v61.312l-71.219,30.567v-48.345V92.022c-0.536,0.099-1.074,0.166-1.61,0.166
		c-1.003,0-1.992-0.189-2.941-0.527v63.869c0,0.006,0.001,0.011,0.001,0.017l0.001,42.954c0.109,1.925,0.403,3.851,0.863,5.771
		c0.01,0.053,0.027,0.104,0.041,0.157c7.004,28.685,50.924,56.4,68.714,66.597c0.194-0.821,0.504-1.628,0.948-2.396
		c0.348-0.604,0.763-1.144,1.221-1.632c-15.544-8.955-51.456-31.542-63.363-55.253l68.088-29.223v74.969
		c0,0.839,0.679,1.518,1.518,1.518c0.838,0,1.517-0.679,1.517-1.518v-74.979l68.06,29.212c-11.896,23.546-47.395,46.036-63.05,55.11
		c1.11,1.125,1.887,2.508,2.275,3.996c19.271-11.051,67.518-41.698,69.256-72.459V155.53v-49.144V91.824
		C220.992,92.053,220.165,92.182,219.328,92.182z M182.608,80.867l9.875-4.692v13.831l-10.451-4.485v-4.476
		C182.228,81.009,182.421,80.956,182.608,80.867z M95.009,90.005V76.175l9.875,4.692c0.188,0.089,0.381,0.142,0.576,0.177v4.476
		L95.009,90.005z M210.246,178.858c0.197,0.085,0.401,0.125,0.602,0.125c0.587,0,1.146-0.343,1.395-0.914
		c0.331-0.77-0.021-1.663-0.79-1.996l-3.411-1.477v-20.512l9.2,3.949l0.002,40.209c-0.046,0.801-0.132,1.604-0.25,2.406
		l-24.071-10.331v-18.957L210.246,178.858z M180.25,162.151v-19.994l24.756,10.626v20.5l-24.813-10.739
		C180.226,162.418,180.25,162.288,180.25,162.151z M189.927,170.064c-0.024,0.108-0.039,0.219-0.039,0.335v18.617l-43.864-18.826
		v-19.128L189.927,170.064z M141.471,170.189l-17.412,7.473v-19.138l6.357-2.729c0.771-0.33,1.126-1.223,0.795-1.993
		c-0.332-0.771-1.222-1.125-1.993-0.796l-24.291,10.426v-19.774c0-0.166-0.033-0.323-0.082-0.472l36.625-15.719V170.189z
		 M70.252,178.315v-20.282l31.641-13.58v20.258c0,0.008,0.002,0.015,0.002,0.022L70.252,178.315z M70.252,198.372v-16.754
		l21.134-9.07v19.138l-20.9,8.97C70.378,199.894,70.296,199.132,70.252,198.372z M94.125,171.372l26.9-11.545v18.377
		c0,0.249,0.066,0.479,0.172,0.688l-26.776,11.491v-18.116C94.421,171.931,94.309,171.623,94.125,171.372z M144.346,178.821
		c-0.005-0.002-0.011-0.003-0.017-0.005c-0.067-0.028-0.137-0.047-0.207-0.065c-0.026-0.007-0.053-0.018-0.079-0.023
		c-0.069-0.014-0.14-0.018-0.211-0.021c-0.028-0.002-0.056-0.008-0.083-0.008c-0.057,0-0.114,0.009-0.171,0.016
		c-0.042,0.005-0.083,0.005-0.125,0.013c-0.04,0.009-0.079,0.023-0.119,0.035c-0.058,0.017-0.115,0.031-0.17,0.054
		c-0.006,0.003-0.012,0.004-0.018,0.006L72.855,208.99c-0.533-1.27-0.99-2.54-1.369-3.812l72.26-31.013l72.228,30.998
		c-0.385,1.27-0.846,2.539-1.383,3.807L144.346,178.821z"/>
	<path fill="#FFFFFF" d="M143.939,281.94c-1.504,0-3.027-0.383-4.421-1.188c-4.237-2.446-5.695-7.885-3.248-12.122
		c2.446-4.236,7.883-5.695,12.123-3.248c4.238,2.446,5.694,7.886,3.248,12.122C149.999,280.349,147.01,281.94,143.939,281.94z
		 M143.963,268.746c-1.495,0-2.952,0.775-3.752,2.16c-1.19,2.064-0.481,4.714,1.583,5.905c2.065,1.191,4.714,0.48,5.905-1.582
		c1.191-2.064,0.481-4.713-1.583-5.905C145.438,268.933,144.695,268.746,143.963,268.746z"/>
	<g>
		<path fill="#FFFFFF" d="M68.642,92.188c-1.538,0-3.056-0.403-4.423-1.193l0,0c-4.236-2.446-5.693-7.885-3.248-12.123
			c2.446-4.238,7.882-5.694,12.123-3.248c4.238,2.446,5.694,7.886,3.248,12.123c-1.184,2.052-3.099,3.522-5.388,4.136
			C70.189,92.087,69.413,92.188,68.642,92.188z M66.495,87.054c1,0.576,2.161,0.733,3.281,0.431
			c1.114-0.298,2.046-1.014,2.625-2.014c1.191-2.064,0.481-4.712-1.583-5.905c-2.066-1.19-4.714-0.481-5.905,1.583
			C63.722,83.213,64.432,85.861,66.495,87.054L66.495,87.054z"/>
	</g>
</g>
<g>
</g>
<g>
</g>
<g>
</g>
<g>
</g>
<g>
</g>
<g>
</g>
<g>
</g>
<g>
</g>
<g>
</g>
<g>
</g>
<g>
</g>
<g>
</g>
<g>
</g>
<g>
</g>
<g>
</g>
</svg>
