<svg xmlns="http://www.w3.org/2000/svg" xml:space="preserve" id="Layer_1" x="0" y="0" version="1.1" viewBox="0 0 288 288">
  <style>
    .st0{fill:#fff}
  </style>
  <switch>
    <g>
      <circle cx="187.5" cy="64.2" r="10.2" class="st0"/>
      <path d="M151.8 94.5c.3.4.7.8 1 1.1l1.2-2.2 3.8-.1c-.4-.9-.6-1.9-.6-2.9 0-1.2.3-2.3.8-3.3l-1.9-3.1h-3.7c-1 1.9-1.6 4.1-1.6 6.4 0 1.2.2 2.3.4 3.4l.6.7zM172.4 98.8l1.3-.7h-1.5l-1.8-3.1c-1.3 1.7-3.3 2.7-5.5 2.8l-1.5 2.8c3 .3 6.2-.3 9-1.8z" class="st0"/>
      <path d="m162.2 100.5 1.4-2.7c-2.2-.3-4.1-1.5-5.2-3.3l-3.7.1-1.1 1.9c2.5 2.1 5.5 3.5 8.6 4zM156.2 79.8c-1.2.9-2.2 2-3 3.2h3.6l1.9 3.2c1.3-1.7 3.3-2.9 5.5-3l.6-1.1c-2.5-.8-5.4-1.7-8.6-2.3zM165.9 82.5l-.4.8c2.2.3 4.2 1.5 5.3 3.4h3.6l.1-.2c-2.4-1.4-5.2-2.8-8.6-4zM175.4 87l-.5.7h-3.6c.4.9.6 1.8.6 2.8 0 1.2-.3 2.4-.9 3.5l1.8 3.1h3l1-.5c.9-1.8 1.4-3.9 1.4-6 0-.6 0-1.2-.1-1.7-.8-.7-1.7-1.3-2.7-1.9zM155 205.9c-.3 0-.6-.1-.9-.3-.8-.5-1.1-1.6-.6-2.4 4.1-6.7 8.5-7.2 12.3-7.7 3.3-.4 6.2-.8 9.2-5.1.6-.8 1.6-1 2.4-.4.8.6 1 1.6.4 2.4-3.9 5.5-8 6.1-11.6 6.5-3.5.5-6.6.8-9.8 6.1-.3.7-.9.9-1.4.9zM159.3 217.5c-.3 0-.6-.1-.9-.3-.8-.5-1.1-1.6-.6-2.4 5.7-9.2 11.7-9.9 17-10.6 4.9-.6 9.1-1.2 13.5-7.5.6-.8 1.6-1 2.4-.4.8.6 1 1.6.4 2.4-5.4 7.6-11 8.3-15.9 9-5.2.7-9.7 1.2-14.5 9-.3.5-.8.8-1.4.8zM174.4 223.1c-.3 0-.6-.1-.9-.3-.8-.5-1.1-1.6-.6-2.4 4-6.4 8.2-6.9 11.9-7.4 3.1-.4 5.8-.8 8.7-4.8.6-.8 1.6-1 2.4-.4.8.6 1 1.6.4 2.4-3.7 5.3-7.7 5.8-11.1 6.3-3.4.4-6.3.8-9.4 5.8-.2.5-.8.8-1.4.8zM166.9 188c-.3 0-.6-.1-.9-.3-.8-.5-1.1-1.6-.6-2.4 4-6.4 8.2-6.9 11.9-7.4 3.1-.4 5.8-.8 8.7-4.8.6-.8 1.6-1 2.4-.4.8.6 1 1.6.4 2.4-3.7 5.3-7.7 5.8-11.1 6.3-3.4.4-6.3.8-9.4 5.8-.2.5-.8.8-1.4.8zM176.7 235.7c-.3 0-.6-.1-.9-.3-.8-.5-1.1-1.6-.6-2.4 3.1-4.9 6.4-5.4 9.1-5.7 2.3-.3 4.1-.5 6.2-3.4.5-.8 1.6-1 2.4-.4.8.6 1 1.6.4 2.4-2.9 4.1-6 4.5-8.6 4.8-2.5.3-4.4.6-6.6 4.1-.2.6-.8.9-1.4.9zM159.1 178.9c-.3 0-.6-.1-.9-.3-.8-.5-1.1-1.6-.6-2.4 3.1-4.9 6.4-5.4 9.1-5.7 2.3-.3 4.1-.5 6.2-3.4.6-.8 1.6-1 2.4-.4.8.6 1 1.6.4 2.4-2.9 4.1-6 4.5-8.6 4.8-2.5.3-4.4.6-6.6 4.1-.2.6-.8.9-1.4.9z" class="st0"/>
      <path d="M152.3 162.4c25.3.3 40-2.9 48.1-5.8 1.4-2.1 3.1-4.1 4.9-6h-.1c-4.4 2.6-19 9.1-55 8.4-.6 0-1 .2-1.4.6-.3.4-.5.9-.4 1.5.1.3 6 31.9-15.1 47.2.2-.1.5-.1.7-.1 1 0 1.9.5 2.3 1.4 0 .1.1.3.3.5 18.7-14.7 16.8-40.2 15.7-47.7zM187.9 93.8c-.2-.3-.4-.6-.7-.8-1.2-2.1-15.5-23.8-72.8-18-1 .1-1.6.9-1.6 1.9.1 1 .9 1.6 1.9 1.6 6.1-.6 11.7-.9 16.9-.9.1.4.2.7.5 1l15.7 19.3c4.3 5.2 10.6 8 17 8 3.4 0 6.8-.8 10-2.4l11.9-6.2c1.3-.6 1.8-2.2 1.2-3.5zm-15.5 5c-7 3.6-15.6 1.8-20.6-4.3l-13.7-16.9c30 1.2 41.7 11.8 45 15.7l-10.7 5.5zM137.3 145.7c-3.5-.2-6.8 1-9.7 3.6-9.6 8.7-13.4 31.7-14.8 45.1l-11.1-41c-.3-.9-1.2-1.5-2.1-1.2-.9.3-1.5 1.2-1.2 2.1l3.4 12.5c-4.1 7.3-16.6 21.7-23.8 29.8 3.5-15.6 3.6-41 3.5-46.4 5.7-.8 13-2.5 21.9-6 .9-.3 1.3-1.4 1-2.2-.3-.9-1.4-1.3-2.2-1-17.8 6.9-28.5 6.7-33.2 6l17.9-15.3c.7-.6.8-1.7.2-2.4-.6-.7-1.7-.8-2.4-.2l-20.4 17.4c-.5.4-.7 1-.6 1.6.1.6.5 1.1 1 1.3.2.1 3.2 1.4 9.4 1.4 1.2 0 2.6-.1 4.1-.2 0 7.1-.2 40.5-5.7 52.3-.4.8-.1 1.7.6 2.2.3.2.6.3 1 .3.5 0 .9-.2 1.3-.6.9-1 20-21.7 27.8-33.5l9.1 33.7c.2.8.9 1.3 1.7 1.3h.2c.9-.1 1.5-.8 1.5-1.7 0-.4 1.8-41.5 14.4-52.8 2.2-2 4.5-2.9 7.1-2.7.9 0 1.8-.7 1.8-1.6 0-.9-.7-1.7-1.7-1.8zM249.5 153.9c-3.4-11.6-21.7-18.6-28.6-20.9 3.9-4 7.1-12.4 8.3-15.9l18.6-1.4c-1.2-1.1-2.4-2.2-3.7-3.2l-16.3 1.2c-.7.1-1.3.5-1.5 1.2-2.5 7.5-6.8 16-9.3 16.8l-24.3 2c-1 .1-1.7.9-1.6 1.9.1.9.8 1.6 1.7 1.6h.1s23.6-1.9 23.8-1.9c.5 0 1.4.5 2 .7.6.2 1.1.4 1.7.6 1.7.6 3.3 1.2 4.9 1.8 4.2 1.7 8.4 3.7 12.2 6.3 1.6 1.1 3.1 2.3 4.4 3.6.6.6 1.3 1.3 1.8 2 .3.3.5.7.8 1.1.1.1.5 1 .6 1 1.7.3 2.7.5 2.8.5.6.1 1.2.5 1.6 1zM218 107.6c-.9-.3-1.8-.3-2.7 0 1.3 1 1.7 3.2.9 5.4-.9 2.4-3 3.8-4.8 3.4.5 1.1 1.3 2 2.4 2.5 2.5.9 5.4-.8 6.6-3.9 1.2-3.2.1-6.5-2.4-7.4zM230.4 225.9c-5.6 0-10.1 4.6-10.1 10.1 0 5.6 4.6 10.2 10.1 10.2s10.2-4.6 10.2-10.2-4.6-10.1-10.2-10.1zM30.9 239.7c-5.6 0-10.2-4.6-10.2-10.2s4.6-10.2 10.2-10.2S41 223.9 41 229.5s-4.5 10.2-10.1 10.2zm0-15.1c-2.7 0-4.9 2.2-4.9 4.9s2.2 4.9 4.9 4.9 4.9-2.2 4.9-4.9-2.2-4.9-4.9-4.9z" class="st0"/>
      <path d="M262.4 126.5c-12.3-24.7-43.1-32.8-48-34-.5-4.4-3.3-16.2-17-25.7-.5 1.7-1.4 3.3-2.6 4.5 13 9.1 14.4 20.3 14.6 22.6-8.9 5.7-9.1 20.7-8.8 26.6l-55.9 10.2c-2.1.1-3.8 1.7-4.1 3.9-.2 2.3 1.2 4.3 3.5 4.7l61.3 11.2c-8 8.3-11.9 17.9-11.7 28.5.4 21.4 17.7 41.5 28.1 51.8.9-1.5 2.2-2.8 3.8-3.6-9.9-9.7-26.3-28.8-26.7-48.2-.2-10.2 4.1-19.3 12.8-27.2 9.8 1.5 28.6 5.1 33.8 6.1l9 21.9c.4 1 1.3 1.6 2.3 1.6 1.1 0 2-.6 2.4-1.5 9.6-20.5 10.6-38.4 3.2-53.4zM257 172l-7.2-17.5c-.3-.8-1.1-1.4-1.9-1.6-.3 0-25.6-5-36.6-6.6l-61.5-11.2 53.9-9.9c1.3-.2 2.3-1.5 2.1-2.9 0-.2-2.1-20.7 7.5-24.7 4.9 1.2 33.4 9.2 44.4 31.2 6 12.2 5.8 26.7-.7 43.2zM23.5 99.6l25.9-1.4c-1.1 8.5-5.4 33.6-21.1 50.6-.8.9-.9 2.2-.3 3.2.6 1 1.9 1.4 3 1.1l14.5-4.5c1.9 4.4 6 15.3 7 28.2 1.5 18.5-3.8 33.4-15.6 44.6 1.4 1.1 2.5 2.5 3.3 4.1 33.2-31.2 9.3-80.7 9.1-81.2-.6-1.1-1.9-1.7-3.1-1.3l-8.5 2.7C53 124.2 54.9 97 55 95.8c0-.7-.2-1.5-.7-2-.5-.5-1.2-.8-2-.8l-17.4.9C64.5 77.3 69.1 69 69.6 68c.6-1.2.1-2.7-1-3.3L59 58.9c10-.9 19.3-3.2 29-5.6 13.2-3.3 26.8-6.7 43.4-6.7 20.2 0 37.1 8.3 46.7 14.2.6-1.7 1.7-3.2 3.1-4.3-10-6.3-28-15.1-49.8-15.1-17.3 0-31.2 3.5-44.7 6.8-12 3-23.4 5.8-36.1 5.8h-.4c-1.2 0-2.2.8-2.5 1.9-.3 1.1.2 2.3 1.2 2.9l14.6 8.7C60 71.2 49.9 80.3 22.2 94.7c-1.1.6-1.6 1.8-1.3 3 .3 1.2 1.4 2 2.6 1.9zM220.3 237c-59.6 18.8-82.8-25.5-83.8-27.5-.5-.9-1.4-1.4-2.3-1.4-.4 0-.7.1-1.1.2-.5.2-50.7 22.2-92.2 19.7.1.5.1 1.1.1 1.6 0 1.3-.2 2.5-.7 3.6 16.8 1.1 36.8-1.6 59.5-7.9 15.8-4.4 28.3-9.3 33.2-11.3 4.7 7.6 23.1 32.8 59.7 32.8 8.7 0 18.5-1.4 29.3-4.9-.9-1.5-1.5-3.1-1.7-4.9z" class="st0"/>
    </g>
  </switch>
</svg>
