<?xml version="1.0" encoding="utf-8"?>
<svg version="1.0" id="Layer_1" xmlns="http://www.w3.org/2000/svg" xmlns:xlink="http://www.w3.org/1999/xlink" x="0px" y="0px" viewBox="0 0 288 288" enable-background="new 0 0 288 288" xml:space="preserve">
<g>
	<path fill="#FFFFFF" d="M145.342,189.229l5.478-7.079c0.4-0.518,0.471-1.217,0.183-1.805c-0.288-0.587-0.884-0.959-1.538-0.959
		h-10.961c-0.654,0-1.25,0.372-1.538,0.959c-0.288,0.588-0.217,1.287,0.183,1.805l5.479,7.079l-5.479,7.079
		c-0.4,0.517-0.47,1.217-0.183,1.804c0.288,0.588,0.884,0.959,1.538,0.959h10.961c0.654,0,1.25-0.371,1.538-0.959
		c0.288-0.587,0.218-1.287-0.183-1.804L145.342,189.229z M145.971,182.813l-1.987,2.567l-1.988-2.567H145.971z M141.996,195.643
		l1.988-2.567l1.987,2.567H141.996z"/>
	<path fill="#FFFFFF" d="M227.55,218.906c-5.977,0-10.841,4.863-10.841,10.841c0,5.977,4.864,10.841,10.841,10.841
		s10.841-4.864,10.841-10.841C238.391,223.77,233.526,218.906,227.55,218.906z"/>
	<path fill="#FFFFFF" d="M229.212,179.941l-31.972-31.97c-0.481-0.481-1.137-0.753-1.817-0.753h-29.57
		c0.783-2.054,1.273-4.211,1.447-6.436h26.993c0.682,0,1.336-0.271,1.817-0.753l31.972-31.971c0.482-0.482,0.753-1.137,0.753-1.818
		V66.455c0-0.117-0.019-0.228-0.034-0.34c-0.775,0.177-1.578,0.278-2.405,0.278c-0.92,0-1.808-0.127-2.661-0.344
		c-0.021,0.133-0.041,0.267-0.041,0.406v38.722l-30.465,30.465h-26.106c-0.142-1.007-0.345-1.993-0.611-2.954l28.891-28.892
		c0.481-0.482,0.753-1.136,0.753-1.817V54.896c0-0.681-0.271-1.336-0.753-1.818l-28.775-28.775c-1.004-1.004-2.631-1.004-3.635,0
		c-1.005,1.004-1.005,2.631,0,3.636l28.021,28.021v44.953L164.4,127.527c-2.187-3.901-5.449-7.118-9.394-9.234l2.613-4.188
		c0.376-0.603,0.341-1.375-0.089-1.943l-5.684-7.49c-0.574-0.751-1.647-0.904-2.402-0.33c-0.755,0.572-0.902,1.648-0.33,2.402
		l4.972,6.549l-2.256,3.612c-2.457-0.879-5.091-1.382-7.847-1.382c-2.671,0-5.229,0.472-7.623,1.3l-2.252-3.538l4.964-6.541
		c0.573-0.753,0.425-1.83-0.33-2.402c-0.753-0.571-1.828-0.423-2.402,0.33l-5.684,7.49c-0.433,0.57-0.465,1.351-0.08,1.957
		l2.591,4.074c-3.987,2.089-7.295,5.292-9.518,9.196l-26.474-26.476V55.96l28.021-28.021c1.004-1.004,1.004-2.631,0-3.636
		c-1.004-1.004-2.631-1.004-3.635,0L92.788,53.078c-0.482,0.482-0.753,1.137-0.753,1.818v47.082c0,0.681,0.271,1.335,0.753,1.817
		l28.713,28.715c-0.291,1.017-0.506,2.063-0.657,3.131H94.96l-30.465-30.465V66.455c0-0.096-0.018-0.188-0.028-0.281
		c-0.802,0.19-1.634,0.301-2.493,0.301c-0.894,0-1.758-0.121-2.59-0.326c-0.012,0.101-0.031,0.201-0.031,0.306v39.786
		c0,0.681,0.271,1.335,0.753,1.818l31.972,31.971c0.482,0.482,1.136,0.753,1.817,0.753h26.771c0.174,2.225,0.664,4.382,1.448,6.436
		H92.767c-0.682,0-1.336,0.271-1.818,0.753l-31.972,31.97c-0.482,0.482-0.753,1.137-0.753,1.818v38.475
		c0.719-0.15,1.463-0.232,2.226-0.232c1.011,0,1.986,0.15,2.916,0.41v-37.588l30.465-30.464h28.358
		c-3.908,2.976-7.118,6.701-9.502,10.897c-0.078,0.062-0.172,0.091-0.244,0.162l-20.785,20.785
		c-0.482,0.481-0.753,1.136-0.753,1.817v47.083c0,0.682,0.271,1.336,0.753,1.818l28.775,28.772c0.502,0.503,1.16,0.754,1.817,0.754
		c0.658,0,1.316-0.251,1.818-0.754c1.004-1.004,1.004-2.631,0-3.635l-28.021-28.021v-44.954l12.514-12.514
		c-0.385,2.107-0.59,4.263-0.59,6.448c0,19.858,16.155,36.014,36.013,36.014c19.857,0,36.012-16.155,36.012-36.014
		c0-2.277-0.218-4.523-0.636-6.716l12.782,12.781v44.954l-28.021,28.021c-1.005,1.004-1.005,2.631,0,3.635
		c0.502,0.503,1.159,0.754,1.817,0.754c0.657,0,1.315-0.251,1.817-0.754l28.775-28.772c0.481-0.482,0.753-1.137,0.753-1.818v-47.083
		c0-0.682-0.271-1.336-0.753-1.817l-20.785-20.785c-0.179-0.178-0.394-0.286-0.604-0.401c-2.37-4.099-5.531-7.739-9.364-10.658
		h28.581l30.465,30.464v36.443c0.873-0.228,1.783-0.361,2.727-0.361c0.831,0,1.638,0.103,2.415,0.28V181.76
		C229.965,181.078,229.694,180.424,229.212,179.941z M174.854,181.021c0,17.023-13.849,30.872-30.871,30.872
		c-17.023,0-30.872-13.849-30.872-30.872c0-11.157,6.057-21.48,15.808-26.944c0.656-0.368,1.12-1.006,1.266-1.743
		c0.146-0.74-0.041-1.505-0.507-2.096c-2.572-3.246-3.935-7.138-3.947-11.258c0.077-0.244,0.129-0.499,0.129-0.768
		c0-0.196-0.026-0.384-0.067-0.567c0.66-9.471,8.556-16.98,18.19-16.98c10.066,0,18.254,8.189,18.254,18.255
		c0,4.143-1.366,8.055-3.95,11.318c-0.468,0.591-0.653,1.355-0.508,2.096c0.146,0.737,0.609,1.375,1.266,1.743
		C168.797,159.541,174.854,169.864,174.854,181.021z"/>
	<path fill="#FFFFFF" d="M226.396,66.393c-5.978,0-10.841-4.864-10.841-10.841c0-5.977,4.863-10.84,10.841-10.84
		c5.977,0,10.84,4.864,10.84,10.84C237.235,61.529,232.372,66.393,226.396,66.393z M226.396,49.853
		c-3.144,0-5.699,2.556-5.699,5.699c0,3.144,2.556,5.699,5.699,5.699c3.143,0,5.698-2.556,5.698-5.699
		C232.094,52.409,229.538,49.853,226.396,49.853z"/>
	<path fill="#FFFFFF" d="M61.975,44.793c-5.977,0-10.84,4.864-10.84,10.841c0,5.977,4.864,10.841,10.84,10.841
		c5.977,0,10.841-4.864,10.841-10.841C72.815,49.657,67.952,44.793,61.975,44.793z"/>
	<path fill="#FFFFFF" d="M60.45,241.684c-5.977,0-10.841-4.863-10.841-10.841c0-5.977,4.864-10.841,10.841-10.841
		c5.977,0,10.841,4.864,10.841,10.841C71.291,236.82,66.427,241.684,60.45,241.684z M60.45,225.144
		c-3.144,0-5.699,2.557-5.699,5.699c0,3.144,2.556,5.699,5.699,5.699c3.143,0,5.699-2.556,5.699-5.699
		C66.149,227.7,63.593,225.144,60.45,225.144z"/>
</g>
<g>
</g>
<g>
</g>
<g>
</g>
<g>
</g>
<g>
</g>
<g>
</g>
<g>
</g>
<g>
</g>
<g>
</g>
<g>
</g>
<g>
</g>
<g>
</g>
<g>
</g>
<g>
</g>
<g>
</g>
</svg>
