<?xml version="1.0" encoding="utf-8"?>
<svg version="1.1" id="Layer_1" xmlns="http://www.w3.org/2000/svg" xmlns:xlink="http://www.w3.org/1999/xlink" x="0px" y="0px" viewBox="0 0 500 500" enable-background="new 0 0 500 500" xml:space="preserve">
<g>
	<path fill="#FFFFFF" d="M364.043,407.87c-1.08-4.166-3.703-7.562-7.407-9.722c-7.562-4.476-17.438-1.853-21.913,5.864
		c-2.161,3.703-2.778,8.024-1.544,12.191c1.08,4.166,3.704,7.562,7.407,9.722c2.47,1.389,5.247,2.16,8.025,2.16
		c1.389,0,2.777-0.154,4.166-0.617c4.167-1.08,7.563-3.703,9.723-7.407C364.66,416.358,365.123,412.037,364.043,407.87z"/>
	<path fill="#FFFFFF" d="M159.414,75.617c-7.562-4.475-17.438-1.852-21.914,5.864c-4.321,7.562-1.698,17.438,6.019,21.914
		c2.469,1.389,5.247,2.161,8.024,2.161c5.556,0,10.957-2.932,13.889-8.025C169.753,89.815,167.13,80.093,159.414,75.617z"/>
	<path fill="#FFFFFF" d="M414.969,359.105h-0.154c-8.796-0.154-15.895-7.408-15.74-16.204s7.407-15.896,16.203-15.741l0,0
		c8.797,0.154,15.896,7.408,15.741,16.204S423.766,359.105,414.969,359.105z M414.969,335.34c-4.32,0-7.716,3.395-7.716,7.716
		c0,2.006,0.771,4.013,2.161,5.556c1.389,1.543,3.395,2.314,5.555,2.314c0,0,0,0,0.154,0c4.321,0,7.717-3.395,7.717-7.716
		C422.84,339.043,419.444,335.494,414.969,335.34C415.123,335.34,414.969,335.34,414.969,335.34z"/>
	<path fill="#FFFFFF" d="M372.377,352.777c22.685-27.314,36.573-62.191,37.037-100.309c0.309-0.617,0.463-1.234,0.463-1.852
		s-0.154-1.234-0.463-1.852c-0.464-36.574-13.118-70.062-34.26-96.914l0,0c-0.154-0.463-0.463-0.772-0.926-1.081
		C344.907,114.352,300.154,91.049,250,91.049s-95.062,23.303-124.229,59.722c-0.309,0.309-0.617,0.617-0.926,1.081l0,0
		c-21.451,27.16-34.259,61.419-34.259,98.611c0,38.734,13.889,74.229,36.883,102.006c0.309,0.463,0.617,0.771,0.926,1.08
		c29.321,34.568,72.839,56.482,121.605,56.482s92.438-22.068,121.759-56.637C372.068,353.395,372.223,353.086,372.377,352.777z
		 M250,320.371c-23.148,0-45.833,2.623-66.975,7.406c-6.636-21.45-10.494-46.296-10.803-72.993h155.709
		c-0.309,26.543-4.32,51.543-10.802,72.993C295.834,322.994,273.148,320.371,250,320.371z M314.506,335.648
		c-14.043,40.123-37.654,66.357-64.506,66.357c-26.852,0-50.463-26.389-64.506-66.357c20.371-4.63,42.13-6.945,64.506-6.945
		C272.377,328.703,294.136,331.019,314.506,335.648z M98.766,254.938h65.123c0.309,27.16,4.476,52.623,11.266,74.846
		c-15.432,4.013-29.938,9.259-43.056,15.741C112.037,320.525,99.691,289.043,98.766,254.938z M129.63,159.259
		c13.426,6.79,28.395,12.346,44.29,16.667c-6.173,21.142-9.722,45.216-10.031,70.833H98.766
		C99.691,213.889,111.111,183.642,129.63,159.259z M250,185.494c23.611,0,46.76-2.624,68.21-7.716
		c5.864,20.525,9.259,43.981,9.567,68.827H172.222c0.309-24.846,3.858-48.303,9.568-68.827
		C203.241,182.87,226.389,185.494,250,185.494z M184.259,169.907c13.889-42.284,38.117-70.37,65.741-70.37
		c27.623,0,52.006,28.086,65.741,70.37c-20.68,4.784-42.901,7.253-65.741,7.253C227.161,177.161,204.938,174.691,184.259,169.907z
		 M401.234,246.605h-65.123c-0.309-25.463-4.013-49.537-10.031-70.833c15.896-4.167,30.864-9.876,44.29-16.667
		C388.889,183.642,400.309,213.889,401.234,246.605z M336.111,254.938h65.123c-0.926,34.259-13.271,65.587-33.333,90.587
		c-13.117-6.482-27.624-11.729-43.056-15.741C331.636,307.562,335.648,282.099,336.111,254.938z M364.969,152.624
		c-12.654,6.327-26.543,11.419-41.512,15.278c-9.414-29.013-23.92-51.852-41.05-64.815
		C315.123,110.185,343.981,128.086,364.969,152.624z M217.593,103.086c-17.13,12.963-31.636,35.957-41.204,64.969
		c-14.969-3.858-28.858-9.105-41.512-15.278C156.019,128.086,184.876,110.185,217.593,103.086z M137.654,351.852
		c12.346-5.863,25.771-10.648,40.278-14.352c9.568,27.16,23.457,48.611,39.815,60.957C186.266,391.666,158.488,375,137.654,351.852z
		 M282.407,398.457c16.358-12.346,30.247-33.797,39.815-60.957c14.352,3.703,27.932,8.488,40.277,14.352
		C341.513,375,313.734,391.666,282.407,398.457z"/>
	<path fill="#FFFFFF" d="M85.185,174.383h-0.154c-4.321,0-8.333-1.698-11.265-4.784s-4.63-7.099-4.476-11.419
		c0-4.321,1.698-8.333,4.784-11.266s6.944-4.475,11.419-4.475l0,0c4.321,0,8.333,1.697,11.266,4.784s4.629,7.099,4.475,11.42
		c0,4.321-1.697,8.333-4.784,11.265C93.21,172.839,89.352,174.383,85.185,174.383z M85.185,150.617
		c-2.006,0-4.012,0.771-5.401,2.161c-1.543,1.389-2.315,3.395-2.315,5.556c0,2.006,0.771,4.012,2.161,5.555
		c1.389,1.543,3.395,2.315,5.555,2.315c2.006,0,4.013-0.771,5.556-2.161c1.543-1.389,2.315-3.395,2.315-5.555
		c0-2.006-0.771-4.013-2.161-5.556C89.198,151.389,87.346,150.617,85.185,150.617L85.185,150.617L85.185,150.617z"/>
	<path fill="#FFFFFF" d="M250,57.716c-30.401,0-60.185,7.099-87.037,20.679c2.006,2.006,3.241,4.475,4.012,7.253
		C192.593,72.685,220.988,65.895,250,65.895c102.006,0,184.877,83.025,184.877,184.876c0,26.697-5.71,52.777-16.667,76.697
		c2.777,0.617,5.247,1.852,7.407,3.704c11.574-25.154,17.593-52.47,17.593-80.401C443.056,144.29,356.481,57.716,250,57.716z"/>
	<path fill="#FFFFFF" d="M333.179,416.204c0-0.154,0-0.154,0-0.309c-25.617,12.963-54.167,19.753-83.179,19.753
		c-102.006,0-184.876-83.025-184.876-184.877c0-26.697,5.71-52.778,16.667-76.697c-0.617-0.154-1.234-0.309-1.852-0.463
		c-0.154,0-0.309-0.154-0.463-0.154c-0.463-0.155-1.08-0.463-1.543-0.618c-0.154,0-0.154,0-0.309-0.154
		c-1.235-0.617-2.315-1.389-3.395-2.315l0,0c-11.574,25.154-17.593,52.624-17.593,80.556c0,106.481,86.574,193.056,193.056,193.056
		c30.401,0,60.186-7.099,87.037-20.679C335.186,421.142,333.95,418.827,333.179,416.204z"/>
</g>
</svg>
